solid debris
  facet normal 0.000000e+00 0.000000e+00 1.000000e+00
    outer loop
      vertex 1.684277e+01 1.785681e+01 1.822528e+00
      vertex 2.032228e+01 1.785681e+01 1.822528e+00
      vertex 2.032228e+01 2.265056e+01 1.822528e+00
    endloop
  endfacet
  facet normal 0.000000e+00 0.000000e+00 1.000000e+00
    outer loop
      vertex 1.684277e+01 1.785681e+01 1.822528e+00
      vertex 2.032228e+01 2.265056e+01 1.822528e+00
      vertex 1.684277e+01 2.265056e+01 1.822528e+00
    endloop
  endfacet
  facet normal 0.000000e+00 0.000000e+00 -1.000000e+00
    outer loop
      vertex 1.684277e+01 1.785681e+01 3.015097e+00
      vertex 1.684277e+01 2.265056e+01 3.015097e+00
      vertex 2.032228e+01 2.265056e+01 3.015097e+00
    endloop
  endfacet
  facet normal 0.000000e+00 0.000000e+00 -1.000000e+00
    outer loop
      vertex 1.684277e+01 1.785681e+01 3.015097e+00
      vertex 2.032228e+01 2.265056e+01 3.015097e+00
      vertex 2.032228e+01 1.785681e+01 3.015097e+00
    endloop
  endfacet
  facet normal 0.000000e+00 1.000000e+00 0.000000e+00
    outer loop
      vertex 1.684277e+01 1.785681e+01 1.822528e+00
      vertex 1.684277e+01 1.785681e+01 3.015097e+00
      vertex 2.032228e+01 1.785681e+01 3.015097e+00
    endloop
  endfacet
  facet normal 0.000000e+00 1.000000e+00 0.000000e+00
    outer loop
      vertex 1.684277e+01 1.785681e+01 1.822528e+00
      vertex 2.032228e+01 1.785681e+01 3.015097e+00
      vertex 2.032228e+01 1.785681e+01 1.822528e+00
    endloop
  endfacet
  facet normal 0.000000e+00 -1.000000e+00 0.000000e+00
    outer loop
      vertex 2.032228e+01 2.265056e+01 1.822528e+00
      vertex 2.032228e+01 2.265056e+01 3.015097e+00
      vertex 1.684277e+01 2.265056e+01 3.015097e+00
    endloop
  endfacet
  facet normal 0.000000e+00 -1.000000e+00 0.000000e+00
    outer loop
      vertex 2.032228e+01 2.265056e+01 1.822528e+00
      vertex 1.684277e+01 2.265056e+01 3.015097e+00
      vertex 1.684277e+01 2.265056e+01 1.822528e+00
    endloop
  endfacet
  facet normal 1.000000e+00 0.000000e+00 0.000000e+00
    outer loop
      vertex 1.684277e+01 1.785681e+01 1.822528e+00
      vertex 1.684277e+01 2.265056e+01 1.822528e+00
      vertex 1.684277e+01 2.265056e+01 3.015097e+00
    endloop
  endfacet
  facet normal 1.000000e+00 0.000000e+00 0.000000e+00
    outer loop
      vertex 1.684277e+01 1.785681e+01 1.822528e+00
      vertex 1.684277e+01 2.265056e+01 3.015097e+00
      vertex 1.684277e+01 1.785681e+01 3.015097e+00
    endloop
  endfacet
  facet normal -1.000000e+00 0.000000e+00 0.000000e+00
    outer loop
      vertex 2.032228e+01 1.785681e+01 1.822528e+00
      vertex 2.032228e+01 1.785681e+01 3.015097e+00
      vertex 2.032228e+01 2.265056e+01 3.015097e+00
    endloop
  endfacet
  facet normal -1.000000e+00 0.000000e+00 0.000000e+00
    outer loop
      vertex 2.032228e+01 1.785681e+01 1.822528e+00
      vertex 2.032228e+01 2.265056e+01 3.015097e+00
      vertex 2.032228e+01 2.265056e+01 1.822528e+00
    endloop
  endfacet
  facet normal 0.000000e+00 0.000000e+00 1.000000e+00
    outer loop
      vertex 2.581100e+01 1.493075e+01 8.105539e-02
      vertex 3.011748e+01 1.493075e+01 8.105539e-02
      vertex 3.011748e+01 1.942879e+01 8.105539e-02
    endloop
  endfacet
  facet normal 0.000000e+00 0.000000e+00 1.000000e+00
    outer loop
      vertex 2.581100e+01 1.493075e+01 8.105539e-02
      vertex 3.011748e+01 1.942879e+01 8.105539e-02
      vertex 2.581100e+01 1.942879e+01 8.105539e-02
    endloop
  endfacet
  facet normal 0.000000e+00 0.000000e+00 -1.000000e+00
    outer loop
      vertex 2.581100e+01 1.493075e+01 2.975259e+00
      vertex 2.581100e+01 1.942879e+01 2.975259e+00
      vertex 3.011748e+01 1.942879e+01 2.975259e+00
    endloop
  endfacet
  facet normal 0.000000e+00 0.000000e+00 -1.000000e+00
    outer loop
      vertex 2.581100e+01 1.493075e+01 2.975259e+00
      vertex 3.011748e+01 1.942879e+01 2.975259e+00
      vertex 3.011748e+01 1.493075e+01 2.975259e+00
    endloop
  endfacet
  facet normal 0.000000e+00 1.000000e+00 0.000000e+00
    outer loop
      vertex 2.581100e+01 1.493075e+01 8.105539e-02
      vertex 2.581100e+01 1.493075e+01 2.975259e+00
      vertex 3.011748e+01 1.493075e+01 2.975259e+00
    endloop
  endfacet
  facet normal 0.000000e+00 1.000000e+00 0.000000e+00
    outer loop
      vertex 2.581100e+01 1.493075e+01 8.105539e-02
      vertex 3.011748e+01 1.493075e+01 2.975259e+00
      vertex 3.011748e+01 1.493075e+01 8.105539e-02
    endloop
  endfacet
  facet normal 0.000000e+00 -1.000000e+00 0.000000e+00
    outer loop
      vertex 3.011748e+01 1.942879e+01 8.105539e-02
      vertex 3.011748e+01 1.942879e+01 2.975259e+00
      vertex 2.581100e+01 1.942879e+01 2.975259e+00
    endloop
  endfacet
  facet normal 0.000000e+00 -1.000000e+00 0.000000e+00
    outer loop
      vertex 3.011748e+01 1.942879e+01 8.105539e-02
      vertex 2.581100e+01 1.942879e+01 2.975259e+00
      vertex 2.581100e+01 1.942879e+01 8.105539e-02
    endloop
  endfacet
  facet normal 1.000000e+00 0.000000e+00 0.000000e+00
    outer loop
      vertex 2.581100e+01 1.493075e+01 8.105539e-02
      vertex 2.581100e+01 1.942879e+01 8.105539e-02
      vertex 2.581100e+01 1.942879e+01 2.975259e+00
    endloop
  endfacet
  facet normal 1.000000e+00 0.000000e+00 0.000000e+00
    outer loop
      vertex 2.581100e+01 1.493075e+01 8.105539e-02
      vertex 2.581100e+01 1.942879e+01 2.975259e+00
      vertex 2.581100e+01 1.493075e+01 2.975259e+00
    endloop
  endfacet
  facet normal -1.000000e+00 0.000000e+00 0.000000e+00
    outer loop
      vertex 3.011748e+01 1.493075e+01 8.105539e-02
      vertex 3.011748e+01 1.493075e+01 2.975259e+00
      vertex 3.011748e+01 1.942879e+01 2.975259e+00
    endloop
  endfacet
  facet normal -1.000000e+00 0.000000e+00 0.000000e+00
    outer loop
      vertex 3.011748e+01 1.493075e+01 8.105539e-02
      vertex 3.011748e+01 1.942879e+01 2.975259e+00
      vertex 3.011748e+01 1.942879e+01 8.105539e-02
    endloop
  endfacet
  facet normal 0.000000e+00 0.000000e+00 1.000000e+00
    outer loop
      vertex 3.547981e+01 2.279989e+01 6.633190e-01
      vertex 3.771068e+01 2.279989e+01 6.633190e-01
      vertex 3.771068e+01 2.522911e+01 6.633190e-01
    endloop
  endfacet
  facet normal 0.000000e+00 0.000000e+00 1.000000e+00
    outer loop
      vertex 3.547981e+01 2.279989e+01 6.633190e-01
      vertex 3.771068e+01 2.522911e+01 6.633190e-01
      vertex 3.547981e+01 2.522911e+01 6.633190e-01
    endloop
  endfacet
  facet normal 0.000000e+00 0.000000e+00 -1.000000e+00
    outer loop
      vertex 3.547981e+01 2.279989e+01 1.912423e+00
      vertex 3.547981e+01 2.522911e+01 1.912423e+00
      vertex 3.771068e+01 2.522911e+01 1.912423e+00
    endloop
  endfacet
  facet normal 0.000000e+00 0.000000e+00 -1.000000e+00
    outer loop
      vertex 3.547981e+01 2.279989e+01 1.912423e+00
      vertex 3.771068e+01 2.522911e+01 1.912423e+00
      vertex 3.771068e+01 2.279989e+01 1.912423e+00
    endloop
  endfacet
  facet normal 0.000000e+00 1.000000e+00 0.000000e+00
    outer loop
      vertex 3.547981e+01 2.279989e+01 6.633190e-01
      vertex 3.547981e+01 2.279989e+01 1.912423e+00
      vertex 3.771068e+01 2.279989e+01 1.912423e+00
    endloop
  endfacet
  facet normal 0.000000e+00 1.000000e+00 0.000000e+00
    outer loop
      vertex 3.547981e+01 2.279989e+01 6.633190e-01
      vertex 3.771068e+01 2.279989e+01 1.912423e+00
      vertex 3.771068e+01 2.279989e+01 6.633190e-01
    endloop
  endfacet
  facet normal 0.000000e+00 -1.000000e+00 0.000000e+00
    outer loop
      vertex 3.771068e+01 2.522911e+01 6.633190e-01
      vertex 3.771068e+01 2.522911e+01 1.912423e+00
      vertex 3.547981e+01 2.522911e+01 1.912423e+00
    endloop
  endfacet
  facet normal 0.000000e+00 -1.000000e+00 0.000000e+00
    outer loop
      vertex 3.771068e+01 2.522911e+01 6.633190e-01
      vertex 3.547981e+01 2.522911e+01 1.912423e+00
      vertex 3.547981e+01 2.522911e+01 6.633190e-01
    endloop
  endfacet
  facet normal 1.000000e+00 0.000000e+00 0.000000e+00
    outer loop
      vertex 3.547981e+01 2.279989e+01 6.633190e-01
      vertex 3.547981e+01 2.522911e+01 6.633190e-01
      vertex 3.547981e+01 2.522911e+01 1.912423e+00
    endloop
  endfacet
  facet normal 1.000000e+00 0.000000e+00 0.000000e+00
    outer loop
      vertex 3.547981e+01 2.279989e+01 6.633190e-01
      vertex 3.547981e+01 2.522911e+01 1.912423e+00
      vertex 3.547981e+01 2.279989e+01 1.912423e+00
    endloop
  endfacet
  facet normal -1.000000e+00 0.000000e+00 0.000000e+00
    outer loop
      vertex 3.771068e+01 2.279989e+01 6.633190e-01
      vertex 3.771068e+01 2.279989e+01 1.912423e+00
      vertex 3.771068e+01 2.522911e+01 1.912423e+00
    endloop
  endfacet
  facet normal -1.000000e+00 0.000000e+00 0.000000e+00
    outer loop
      vertex 3.771068e+01 2.279989e+01 6.633190e-01
      vertex 3.771068e+01 2.522911e+01 1.912423e+00
      vertex 3.771068e+01 2.522911e+01 6.633190e-01
    endloop
  endfacet
endsolid debris
