solid debris
  facet normal 0.000000e+00 0.000000e+00 1.000000e+00
    outer loop
      vertex 1.326130e+01 2.161706e+01 1.204438e-01
      vertex 1.712031e+01 2.161706e+01 1.204438e-01
      vertex 1.712031e+01 2.720810e+01 1.204438e-01
    endloop
  endfacet
  facet normal 0.000000e+00 0.000000e+00 1.000000e+00
    outer loop
      vertex 1.326130e+01 2.161706e+01 1.204438e-01
      vertex 1.712031e+01 2.720810e+01 1.204438e-01
      vertex 1.326130e+01 2.720810e+01 1.204438e-01
    endloop
  endfacet
  facet normal 0.000000e+00 0.000000e+00 -1.000000e+00
    outer loop
      vertex 1.326130e+01 2.161706e+01 1.831991e+00
      vertex 1.326130e+01 2.720810e+01 1.831991e+00
      vertex 1.712031e+01 2.720810e+01 1.831991e+00
    endloop
  endfacet
  facet normal 0.000000e+00 0.000000e+00 -1.000000e+00
    outer loop
      vertex 1.326130e+01 2.161706e+01 1.831991e+00
      vertex 1.712031e+01 2.720810e+01 1.831991e+00
      vertex 1.712031e+01 2.161706e+01 1.831991e+00
    endloop
  endfacet
  facet normal 0.000000e+00 1.000000e+00 0.000000e+00
    outer loop
      vertex 1.326130e+01 2.161706e+01 1.204438e-01
      vertex 1.326130e+01 2.161706e+01 1.831991e+00
      vertex 1.712031e+01 2.161706e+01 1.831991e+00
    endloop
  endfacet
  facet normal 0.000000e+00 1.000000e+00 0.000000e+00
    outer loop
      vertex 1.326130e+01 2.161706e+01 1.204438e-01
      vertex 1.712031e+01 2.161706e+01 1.831991e+00
      vertex 1.712031e+01 2.161706e+01 1.204438e-01
    endloop
  endfacet
  facet normal 0.000000e+00 -1.000000e+00 0.000000e+00
    outer loop
      vertex 1.712031e+01 2.720810e+01 1.204438e-01
      vertex 1.712031e+01 2.720810e+01 1.831991e+00
      vertex 1.326130e+01 2.720810e+01 1.831991e+00
    endloop
  endfacet
  facet normal 0.000000e+00 -1.000000e+00 0.000000e+00
    outer loop
      vertex 1.712031e+01 2.720810e+01 1.204438e-01
      vertex 1.326130e+01 2.720810e+01 1.831991e+00
      vertex 1.326130e+01 2.720810e+01 1.204438e-01
    endloop
  endfacet
  facet normal 1.000000e+00 0.000000e+00 0.000000e+00
    outer loop
      vertex 1.326130e+01 2.161706e+01 1.204438e-01
      vertex 1.326130e+01 2.720810e+01 1.204438e-01
      vertex 1.326130e+01 2.720810e+01 1.831991e+00
    endloop
  endfacet
  facet normal 1.000000e+00 0.000000e+00 0.000000e+00
    outer loop
      vertex 1.326130e+01 2.161706e+01 1.204438e-01
      vertex 1.326130e+01 2.720810e+01 1.831991e+00
      vertex 1.326130e+01 2.161706e+01 1.831991e+00
    endloop
  endfacet
  facet normal -1.000000e+00 0.000000e+00 0.000000e+00
    outer loop
      vertex 1.712031e+01 2.161706e+01 1.204438e-01
      vertex 1.712031e+01 2.161706e+01 1.831991e+00
      vertex 1.712031e+01 2.720810e+01 1.831991e+00
    endloop
  endfacet
  facet normal -1.000000e+00 0.000000e+00 0.000000e+00
    outer loop
      vertex 1.712031e+01 2.161706e+01 1.204438e-01
      vertex 1.712031e+01 2.720810e+01 1.831991e+00
      vertex 1.712031e+01 2.720810e+01 1.204438e-01
    endloop
  endfacet
  facet normal 0.000000e+00 0.000000e+00 1.000000e+00
    outer loop
      vertex 2.227097e+01 6.887133e+00 1.799548e+00
      vertex 2.821210e+01 6.887133e+00 1.799548e+00
      vertex 2.821210e+01 9.573899e+00 1.799548e+00
    endloop
  endfacet
  facet normal 0.000000e+00 0.000000e+00 1.000000e+00
    outer loop
      vertex 2.227097e+01 6.887133e+00 1.799548e+00
      vertex 2.821210e+01 9.573899e+00 1.799548e+00
      vertex 2.227097e+01 9.573899e+00 1.799548e+00
    endloop
  endfacet
  facet normal 0.000000e+00 0.000000e+00 -1.000000e+00
    outer loop
      vertex 2.227097e+01 6.887133e+00 3.045064e+00
      vertex 2.227097e+01 9.573899e+00 3.045064e+00
      vertex 2.821210e+01 9.573899e+00 3.045064e+00
    endloop
  endfacet
  facet normal 0.000000e+00 0.000000e+00 -1.000000e+00
    outer loop
      vertex 2.227097e+01 6.887133e+00 3.045064e+00
      vertex 2.821210e+01 9.573899e+00 3.045064e+00
      vertex 2.821210e+01 6.887133e+00 3.045064e+00
    endloop
  endfacet
  facet normal 0.000000e+00 1.000000e+00 0.000000e+00
    outer loop
      vertex 2.227097e+01 6.887133e+00 1.799548e+00
      vertex 2.227097e+01 6.887133e+00 3.045064e+00
      vertex 2.821210e+01 6.887133e+00 3.045064e+00
    endloop
  endfacet
  facet normal 0.000000e+00 1.000000e+00 0.000000e+00
    outer loop
      vertex 2.227097e+01 6.887133e+00 1.799548e+00
      vertex 2.821210e+01 6.887133e+00 3.045064e+00
      vertex 2.821210e+01 6.887133e+00 1.799548e+00
    endloop
  endfacet
  facet normal 0.000000e+00 -1.000000e+00 0.000000e+00
    outer loop
      vertex 2.821210e+01 9.573899e+00 1.799548e+00
      vertex 2.821210e+01 9.573899e+00 3.045064e+00
      vertex 2.227097e+01 9.573899e+00 3.045064e+00
    endloop
  endfacet
  facet normal 0.000000e+00 -1.000000e+00 0.000000e+00
    outer loop
      vertex 2.821210e+01 9.573899e+00 1.799548e+00
      vertex 2.227097e+01 9.573899e+00 3.045064e+00
      vertex 2.227097e+01 9.573899e+00 1.799548e+00
    endloop
  endfacet
  facet normal 1.000000e+00 0.000000e+00 0.000000e+00
    outer loop
      vertex 2.227097e+01 6.887133e+00 1.799548e+00
      vertex 2.227097e+01 9.573899e+00 1.799548e+00
      vertex 2.227097e+01 9.573899e+00 3.045064e+00
    endloop
  endfacet
  facet normal 1.000000e+00 0.000000e+00 0.000000e+00
    outer loop
      vertex 2.227097e+01 6.887133e+00 1.799548e+00
      vertex 2.227097e+01 9.573899e+00 3.045064e+00
      vertex 2.227097e+01 6.887133e+00 3.045064e+00
    endloop
  endfacet
  facet normal -1.000000e+00 0.000000e+00 0.000000e+00
    outer loop
      vertex 2.821210e+01 6.887133e+00 1.799548e+00
      vertex 2.821210e+01 6.887133e+00 3.045064e+00
      vertex 2.821210e+01 9.573899e+00 3.045064e+00
    endloop
  endfacet
  facet normal -1.000000e+00 0.000000e+00 0.000000e+00
    outer loop
      vertex 2.821210e+01 6.887133e+00 1.799548e+00
      vertex 2.821210e+01 9.573899e+00 3.045064e+00
      vertex 2.821210e+01 9.573899e+00 1.799548e+00
    endloop
  endfacet
  facet normal 0.000000e+00 0.000000e+00 1.000000e+00
    outer loop
      vertex 2.249107e+01 1.319433e+01 1.390267e+00
      vertex 2.586205e+01 1.319433e+01 1.390267e+00
      vertex 2.586205e+01 1.755474e+01 1.390267e+00
    endloop
  endfacet
  facet normal 0.000000e+00 0.000000e+00 1.000000e+00
    outer loop
      vertex 2.249107e+01 1.319433e+01 1.390267e+00
      vertex 2.586205e+01 1.755474e+01 1.390267e+00
      vertex 2.249107e+01 1.755474e+01 1.390267e+00
    endloop
  endfacet
  facet normal 0.000000e+00 0.000000e+00 -1.000000e+00
    outer loop
      vertex 2.249107e+01 1.319433e+01 2.710928e+00
      vertex 2.249107e+01 1.755474e+01 2.710928e+00
      vertex 2.586205e+01 1.755474e+01 2.710928e+00
    endloop
  endfacet
  facet normal 0.000000e+00 0.000000e+00 -1.000000e+00
    outer loop
      vertex 2.249107e+01 1.319433e+01 2.710928e+00
      vertex 2.586205e+01 1.755474e+01 2.710928e+00
      vertex 2.586205e+01 1.319433e+01 2.710928e+00
    endloop
  endfacet
  facet normal 0.000000e+00 1.000000e+00 0.000000e+00
    outer loop
      vertex 2.249107e+01 1.319433e+01 1.390267e+00
      vertex 2.249107e+01 1.319433e+01 2.710928e+00
      vertex 2.586205e+01 1.319433e+01 2.710928e+00
    endloop
  endfacet
  facet normal 0.000000e+00 1.000000e+00 0.000000e+00
    outer loop
      vertex 2.249107e+01 1.319433e+01 1.390267e+00
      vertex 2.586205e+01 1.319433e+01 2.710928e+00
      vertex 2.586205e+01 1.319433e+01 1.390267e+00
    endloop
  endfacet
  facet normal 0.000000e+00 -1.000000e+00 0.000000e+00
    outer loop
      vertex 2.586205e+01 1.755474e+01 1.390267e+00
      vertex 2.586205e+01 1.755474e+01 2.710928e+00
      vertex 2.249107e+01 1.755474e+01 2.710928e+00
    endloop
  endfacet
  facet normal 0.000000e+00 -1.000000e+00 0.000000e+00
    outer loop
      vertex 2.586205e+01 1.755474e+01 1.390267e+00
      vertex 2.249107e+01 1.755474e+01 2.710928e+00
      vertex 2.249107e+01 1.755474e+01 1.390267e+00
    endloop
  endfacet
  facet normal 1.000000e+00 0.000000e+00 0.000000e+00
    outer loop
      vertex 2.249107e+01 1.319433e+01 1.390267e+00
      vertex 2.249107e+01 1.755474e+01 1.390267e+00
      vertex 2.249107e+01 1.755474e+01 2.710928e+00
    endloop
  endfacet
  facet normal 1.000000e+00 0.000000e+00 0.000000e+00
    outer loop
      vertex 2.249107e+01 1.319433e+01 1.390267e+00
      vertex 2.249107e+01 1.755474e+01 2.710928e+00
      vertex 2.249107e+01 1.319433e+01 2.710928e+00
    endloop
  endfacet
  facet normal -1.000000e+00 0.000000e+00 0.000000e+00
    outer loop
      vertex 2.586205e+01 1.319433e+01 1.390267e+00
      vertex 2.586205e+01 1.319433e+01 2.710928e+00
      vertex 2.586205e+01 1.755474e+01 2.710928e+00
    endloop
  endfacet
  facet normal -1.000000e+00 0.000000e+00 0.000000e+00
    outer loop
      vertex 2.586205e+01 1.319433e+01 1.390267e+00
      vertex 2.586205e+01 1.755474e+01 2.710928e+00
      vertex 2.586205e+01 1.755474e+01 1.390267e+00
    endloop
  endfacet
  facet normal 0.000000e+00 0.000000e+00 1.000000e+00
    outer loop
      vertex 1.425290e+01 4.341608e+00 1.559756e-01
      vertex 1.850402e+01 4.341608e+00 1.559756e-01
      vertex 1.850402e+01 8.809595e+00 1.559756e-01
    endloop
  endfacet
  facet normal 0.000000e+00 0.000000e+00 1.000000e+00
    outer loop
      vertex 1.425290e+01 4.341608e+00 1.559756e-01
      vertex 1.850402e+01 8.809595e+00 1.559756e-01
      vertex 1.425290e+01 8.809595e+00 1.559756e-01
    endloop
  endfacet
  facet normal 0.000000e+00 0.000000e+00 -1.000000e+00
    outer loop
      vertex 1.425290e+01 4.341608e+00 3.027229e+00
      vertex 1.425290e+01 8.809595e+00 3.027229e+00
      vertex 1.850402e+01 8.809595e+00 3.027229e+00
    endloop
  endfacet
  facet normal 0.000000e+00 0.000000e+00 -1.000000e+00
    outer loop
      vertex 1.425290e+01 4.341608e+00 3.027229e+00
      vertex 1.850402e+01 8.809595e+00 3.027229e+00
      vertex 1.850402e+01 4.341608e+00 3.027229e+00
    endloop
  endfacet
  facet normal 0.000000e+00 1.000000e+00 0.000000e+00
    outer loop
      vertex 1.425290e+01 4.341608e+00 1.559756e-01
      vertex 1.425290e+01 4.341608e+00 3.027229e+00
      vertex 1.850402e+01 4.341608e+00 3.027229e+00
    endloop
  endfacet
  facet normal 0.000000e+00 1.000000e+00 0.000000e+00
    outer loop
      vertex 1.425290e+01 4.341608e+00 1.559756e-01
      vertex 1.850402e+01 4.341608e+00 3.027229e+00
      vertex 1.850402e+01 4.341608e+00 1.559756e-01
    endloop
  endfacet
  facet normal 0.000000e+00 -1.000000e+00 0.000000e+00
    outer loop
      vertex 1.850402e+01 8.809595e+00 1.559756e-01
      vertex 1.850402e+01 8.809595e+00 3.027229e+00
      vertex 1.425290e+01 8.809595e+00 3.027229e+00
    endloop
  endfacet
  facet normal 0.000000e+00 -1.000000e+00 0.000000e+00
    outer loop
      vertex 1.850402e+01 8.809595e+00 1.559756e-01
      vertex 1.425290e+01 8.809595e+00 3.027229e+00
      vertex 1.425290e+01 8.809595e+00 1.559756e-01
    endloop
  endfacet
  facet normal 1.000000e+00 0.000000e+00 0.000000e+00
    outer loop
      vertex 1.425290e+01 4.341608e+00 1.559756e-01
      vertex 1.425290e+01 8.809595e+00 1.559756e-01
      vertex 1.425290e+01 8.809595e+00 3.027229e+00
    endloop
  endfacet
  facet normal 1.000000e+00 0.000000e+00 0.000000e+00
    outer loop
      vertex 1.425290e+01 4.341608e+00 1.559756e-01
      vertex 1.425290e+01 8.809595e+00 3.027229e+00
      vertex 1.425290e+01 4.341608e+00 3.027229e+00
    endloop
  endfacet
  facet normal -1.000000e+00 0.000000e+00 0.000000e+00
    outer loop
      vertex 1.850402e+01 4.341608e+00 1.559756e-01
      vertex 1.850402e+01 4.341608e+00 3.027229e+00
      vertex 1.850402e+01 8.809595e+00 3.027229e+00
    endloop
  endfacet
  facet normal -1.000000e+00 0.000000e+00 0.000000e+00
    outer loop
      vertex 1.850402e+01 4.341608e+00 1.559756e-01
      vertex 1.850402e+01 8.809595e+00 3.027229e+00
      vertex 1.850402e+01 8.809595e+00 1.559756e-01
    endloop
  endfacet
  facet normal 0.000000e+00 0.000000e+00 1.000000e+00
    outer loop
      vertex 1.630091e+01 1.023805e+01 6.356708e-01
      vertex 2.208491e+01 1.023805e+01 6.356708e-01
      vertex 2.208491e+01 1.346763e+01 6.356708e-01
    endloop
  endfacet
  facet normal 0.000000e+00 0.000000e+00 1.000000e+00
    outer loop
      vertex 1.630091e+01 1.023805e+01 6.356708e-01
      vertex 2.208491e+01 1.346763e+01 6.356708e-01
      vertex 1.630091e+01 1.346763e+01 6.356708e-01
    endloop
  endfacet
  facet normal 0.000000e+00 0.000000e+00 -1.000000e+00
    outer loop
      vertex 1.630091e+01 1.023805e+01 2.216589e+00
      vertex 1.630091e+01 1.346763e+01 2.216589e+00
      vertex 2.208491e+01 1.346763e+01 2.216589e+00
    endloop
  endfacet
  facet normal 0.000000e+00 0.000000e+00 -1.000000e+00
    outer loop
      vertex 1.630091e+01 1.023805e+01 2.216589e+00
      vertex 2.208491e+01 1.346763e+01 2.216589e+00
      vertex 2.208491e+01 1.023805e+01 2.216589e+00
    endloop
  endfacet
  facet normal 0.000000e+00 1.000000e+00 0.000000e+00
    outer loop
      vertex 1.630091e+01 1.023805e+01 6.356708e-01
      vertex 1.630091e+01 1.023805e+01 2.216589e+00
      vertex 2.208491e+01 1.023805e+01 2.216589e+00
    endloop
  endfacet
  facet normal 0.000000e+00 1.000000e+00 0.000000e+00
    outer loop
      vertex 1.630091e+01 1.023805e+01 6.356708e-01
      vertex 2.208491e+01 1.023805e+01 2.216589e+00
      vertex 2.208491e+01 1.023805e+01 6.356708e-01
    endloop
  endfacet
  facet normal 0.000000e+00 -1.000000e+00 0.000000e+00
    outer loop
      vertex 2.208491e+01 1.346763e+01 6.356708e-01
      vertex 2.208491e+01 1.346763e+01 2.216589e+00
      vertex 1.630091e+01 1.346763e+01 2.216589e+00
    endloop
  endfacet
  facet normal 0.000000e+00 -1.000000e+00 0.000000e+00
    outer loop
      vertex 2.208491e+01 1.346763e+01 6.356708e-01
      vertex 1.630091e+01 1.346763e+01 2.216589e+00
      vertex 1.630091e+01 1.346763e+01 6.356708e-01
    endloop
  endfacet
  facet normal 1.000000e+00 0.000000e+00 0.000000e+00
    outer loop
      vertex 1.630091e+01 1.023805e+01 6.356708e-01
      vertex 1.630091e+01 1.346763e+01 6.356708e-01
      vertex 1.630091e+01 1.346763e+01 2.216589e+00
    endloop
  endfacet
  facet normal 1.000000e+00 0.000000e+00 0.000000e+00
    outer loop
      vertex 1.630091e+01 1.023805e+01 6.356708e-01
      vertex 1.630091e+01 1.346763e+01 2.216589e+00
      vertex 1.630091e+01 1.023805e+01 2.216589e+00
    endloop
  endfacet
  facet normal -1.000000e+00 0.000000e+00 0.000000e+00
    outer loop
      vertex 2.208491e+01 1.023805e+01 6.356708e-01
      vertex 2.208491e+01 1.023805e+01 2.216589e+00
      vertex 2.208491e+01 1.346763e+01 2.216589e+00
    endloop
  endfacet
  facet normal -1.000000e+00 0.000000e+00 0.000000e+00
    outer loop
      vertex 2.208491e+01 1.023805e+01 6.356708e-01
      vertex 2.208491e+01 1.346763e+01 2.216589e+00
      vertex 2.208491e+01 1.346763e+01 6.356708e-01
    endloop
  endfacet
  facet normal 0.000000e+00 0.000000e+00 1.000000e+00
    outer loop
      vertex 2.145648e+01 1.633164e+01 -1.587818e-02
      vertex 2.414823e+01 1.633164e+01 -1.587818e-02
      vertex 2.414823e+01 2.125854e+01 -1.587818e-02
    endloop
  endfacet
  facet normal 0.000000e+00 0.000000e+00 1.000000e+00
    outer loop
      vertex 2.145648e+01 1.633164e+01 -1.587818e-02
      vertex 2.414823e+01 2.125854e+01 -1.587818e-02
      vertex 2.145648e+01 2.125854e+01 -1.587818e-02
    endloop
  endfacet
  facet normal 0.000000e+00 0.000000e+00 -1.000000e+00
    outer loop
      vertex 2.145648e+01 1.633164e+01 2.134396e+00
      vertex 2.145648e+01 2.125854e+01 2.134396e+00
      vertex 2.414823e+01 2.125854e+01 2.134396e+00
    endloop
  endfacet
  facet normal 0.000000e+00 0.000000e+00 -1.000000e+00
    outer loop
      vertex 2.145648e+01 1.633164e+01 2.134396e+00
      vertex 2.414823e+01 2.125854e+01 2.134396e+00
      vertex 2.414823e+01 1.633164e+01 2.134396e+00
    endloop
  endfacet
  facet normal 0.000000e+00 1.000000e+00 0.000000e+00
    outer loop
      vertex 2.145648e+01 1.633164e+01 -1.587818e-02
      vertex 2.145648e+01 1.633164e+01 2.134396e+00
      vertex 2.414823e+01 1.633164e+01 2.134396e+00
    endloop
  endfacet
  facet normal 0.000000e+00 1.000000e+00 0.000000e+00
    outer loop
      vertex 2.145648e+01 1.633164e+01 -1.587818e-02
      vertex 2.414823e+01 1.633164e+01 2.134396e+00
      vertex 2.414823e+01 1.633164e+01 -1.587818e-02
    endloop
  endfacet
  facet normal 0.000000e+00 -1.000000e+00 0.000000e+00
    outer loop
      vertex 2.414823e+01 2.125854e+01 -1.587818e-02
      vertex 2.414823e+01 2.125854e+01 2.134396e+00
      vertex 2.145648e+01 2.125854e+01 2.134396e+00
    endloop
  endfacet
  facet normal 0.000000e+00 -1.000000e+00 0.000000e+00
    outer loop
      vertex 2.414823e+01 2.125854e+01 -1.587818e-02
      vertex 2.145648e+01 2.125854e+01 2.134396e+00
      vertex 2.145648e+01 2.125854e+01 -1.587818e-02
    endloop
  endfacet
  facet normal 1.000000e+00 0.000000e+00 0.000000e+00
    outer loop
      vertex 2.145648e+01 1.633164e+01 -1.587818e-02
      vertex 2.145648e+01 2.125854e+01 -1.587818e-02
      vertex 2.145648e+01 2.125854e+01 2.134396e+00
    endloop
  endfacet
  facet normal 1.000000e+00 0.000000e+00 0.000000e+00
    outer loop
      vertex 2.145648e+01 1.633164e+01 -1.587818e-02
      vertex 2.145648e+01 2.125854e+01 2.134396e+00
      vertex 2.145648e+01 1.633164e+01 2.134396e+00
    endloop
  endfacet
  facet normal -1.000000e+00 0.000000e+00 0.000000e+00
    outer loop
      vertex 2.414823e+01 1.633164e+01 -1.587818e-02
      vertex 2.414823e+01 1.633164e+01 2.134396e+00
      vertex 2.414823e+01 2.125854e+01 2.134396e+00
    endloop
  endfacet
  facet normal -1.000000e+00 0.000000e+00 0.000000e+00
    outer loop
      vertex 2.414823e+01 1.633164e+01 -1.587818e-02
      vertex 2.414823e+01 2.125854e+01 2.134396e+00
      vertex 2.414823e+01 2.125854e+01 -1.587818e-02
    endloop
  endfacet
  facet normal 0.000000e+00 0.000000e+00 1.000000e+00
    outer loop
      vertex 2.617064e+01 3.543232e+00 -4.071237e-01
      vertex 2.857741e+01 3.543232e+00 -4.071237e-01
      vertex 2.857741e+01 7.004255e+00 -4.071237e-01
    endloop
  endfacet
  facet normal 0.000000e+00 0.000000e+00 1.000000e+00
    outer loop
      vertex 2.617064e+01 3.543232e+00 -4.071237e-01
      vertex 2.857741e+01 7.004255e+00 -4.071237e-01
      vertex 2.617064e+01 7.004255e+00 -4.071237e-01
    endloop
  endfacet
  facet normal 0.000000e+00 0.000000e+00 -1.000000e+00
    outer loop
      vertex 2.617064e+01 3.543232e+00 2.404122e+00
      vertex 2.617064e+01 7.004255e+00 2.404122e+00
      vertex 2.857741e+01 7.004255e+00 2.404122e+00
    endloop
  endfacet
  facet normal 0.000000e+00 0.000000e+00 -1.000000e+00
    outer loop
      vertex 2.617064e+01 3.543232e+00 2.404122e+00
      vertex 2.857741e+01 7.004255e+00 2.404122e+00
      vertex 2.857741e+01 3.543232e+00 2.404122e+00
    endloop
  endfacet
  facet normal 0.000000e+00 1.000000e+00 0.000000e+00
    outer loop
      vertex 2.617064e+01 3.543232e+00 -4.071237e-01
      vertex 2.617064e+01 3.543232e+00 2.404122e+00
      vertex 2.857741e+01 3.543232e+00 2.404122e+00
    endloop
  endfacet
  facet normal 0.000000e+00 1.000000e+00 0.000000e+00
    outer loop
      vertex 2.617064e+01 3.543232e+00 -4.071237e-01
      vertex 2.857741e+01 3.543232e+00 2.404122e+00
      vertex 2.857741e+01 3.543232e+00 -4.071237e-01
    endloop
  endfacet
  facet normal 0.000000e+00 -1.000000e+00 0.000000e+00
    outer loop
      vertex 2.857741e+01 7.004255e+00 -4.071237e-01
      vertex 2.857741e+01 7.004255e+00 2.404122e+00
      vertex 2.617064e+01 7.004255e+00 2.404122e+00
    endloop
  endfacet
  facet normal 0.000000e+00 -1.000000e+00 0.000000e+00
    outer loop
      vertex 2.857741e+01 7.004255e+00 -4.071237e-01
      vertex 2.617064e+01 7.004255e+00 2.404122e+00
      vertex 2.617064e+01 7.004255e+00 -4.071237e-01
    endloop
  endfacet
  facet normal 1.000000e+00 0.000000e+00 0.000000e+00
    outer loop
      vertex 2.617064e+01 3.543232e+00 -4.071237e-01
      vertex 2.617064e+01 7.004255e+00 -4.071237e-01
      vertex 2.617064e+01 7.004255e+00 2.404122e+00
    endloop
  endfacet
  facet normal 1.000000e+00 0.000000e+00 0.000000e+00
    outer loop
      vertex 2.617064e+01 3.543232e+00 -4.071237e-01
      vertex 2.617064e+01 7.004255e+00 2.404122e+00
      vertex 2.617064e+01 3.543232e+00 2.404122e+00
    endloop
  endfacet
  facet normal -1.000000e+00 0.000000e+00 0.000000e+00
    outer loop
      vertex 2.857741e+01 3.543232e+00 -4.071237e-01
      vertex 2.857741e+01 3.543232e+00 2.404122e+00
      vertex 2.857741e+01 7.004255e+00 2.404122e+00
    endloop
  endfacet
  facet normal -1.000000e+00 0.000000e+00 0.000000e+00
    outer loop
      vertex 2.857741e+01 3.543232e+00 -4.071237e-01
      vertex 2.857741e+01 7.004255e+00 2.404122e+00
      vertex 2.857741e+01 7.004255e+00 -4.071237e-01
    endloop
  endfacet
endsolid debris
