solid debris
  facet normal 0.000000e+00 0.000000e+00 1.000000e+00
    outer loop
      vertex 8.259438e+00 1.520012e+01 -1.050537e-01
      vertex 1.243034e+01 1.520012e+01 -1.050537e-01
      vertex 1.243034e+01 2.092399e+01 -1.050537e-01
    endloop
  endfacet
  facet normal 0.000000e+00 0.000000e+00 1.000000e+00
    outer loop
      vertex 8.259438e+00 1.520012e+01 -1.050537e-01
      vertex 1.243034e+01 2.092399e+01 -1.050537e-01
      vertex 8.259438e+00 2.092399e+01 -1.050537e-01
    endloop
  endfacet
  facet normal 0.000000e+00 0.000000e+00 -1.000000e+00
    outer loop
      vertex 8.259438e+00 1.520012e+01 2.309618e+00
      vertex 8.259438e+00 2.092399e+01 2.309618e+00
      vertex 1.243034e+01 2.092399e+01 2.309618e+00
    endloop
  endfacet
  facet normal 0.000000e+00 0.000000e+00 -1.000000e+00
    outer loop
      vertex 8.259438e+00 1.520012e+01 2.309618e+00
      vertex 1.243034e+01 2.092399e+01 2.309618e+00
      vertex 1.243034e+01 1.520012e+01 2.309618e+00
    endloop
  endfacet
  facet normal 0.000000e+00 1.000000e+00 0.000000e+00
    outer loop
      vertex 8.259438e+00 1.520012e+01 -1.050537e-01
      vertex 8.259438e+00 1.520012e+01 2.309618e+00
      vertex 1.243034e+01 1.520012e+01 2.309618e+00
    endloop
  endfacet
  facet normal 0.000000e+00 1.000000e+00 0.000000e+00
    outer loop
      vertex 8.259438e+00 1.520012e+01 -1.050537e-01
      vertex 1.243034e+01 1.520012e+01 2.309618e+00
      vertex 1.243034e+01 1.520012e+01 -1.050537e-01
    endloop
  endfacet
  facet normal 0.000000e+00 -1.000000e+00 0.000000e+00
    outer loop
      vertex 1.243034e+01 2.092399e+01 -1.050537e-01
      vertex 1.243034e+01 2.092399e+01 2.309618e+00
      vertex 8.259438e+00 2.092399e+01 2.309618e+00
    endloop
  endfacet
  facet normal 0.000000e+00 -1.000000e+00 0.000000e+00
    outer loop
      vertex 1.243034e+01 2.092399e+01 -1.050537e-01
      vertex 8.259438e+00 2.092399e+01 2.309618e+00
      vertex 8.259438e+00 2.092399e+01 -1.050537e-01
    endloop
  endfacet
  facet normal 1.000000e+00 0.000000e+00 0.000000e+00
    outer loop
      vertex 8.259438e+00 1.520012e+01 -1.050537e-01
      vertex 8.259438e+00 2.092399e+01 -1.050537e-01
      vertex 8.259438e+00 2.092399e+01 2.309618e+00
    endloop
  endfacet
  facet normal 1.000000e+00 0.000000e+00 0.000000e+00
    outer loop
      vertex 8.259438e+00 1.520012e+01 -1.050537e-01
      vertex 8.259438e+00 2.092399e+01 2.309618e+00
      vertex 8.259438e+00 1.520012e+01 2.309618e+00
    endloop
  endfacet
  facet normal -1.000000e+00 0.000000e+00 0.000000e+00
    outer loop
      vertex 1.243034e+01 1.520012e+01 -1.050537e-01
      vertex 1.243034e+01 1.520012e+01 2.309618e+00
      vertex 1.243034e+01 2.092399e+01 2.309618e+00
    endloop
  endfacet
  facet normal -1.000000e+00 0.000000e+00 0.000000e+00
    outer loop
      vertex 1.243034e+01 1.520012e+01 -1.050537e-01
      vertex 1.243034e+01 2.092399e+01 2.309618e+00
      vertex 1.243034e+01 2.092399e+01 -1.050537e-01
    endloop
  endfacet
  facet normal 0.000000e+00 0.000000e+00 1.000000e+00
    outer loop
      vertex 1.132437e+01 1.521673e+01 6.523181e-01
      vertex 1.434613e+01 1.521673e+01 6.523181e-01
      vertex 1.434613e+01 1.951192e+01 6.523181e-01
    endloop
  endfacet
  facet normal 0.000000e+00 0.000000e+00 1.000000e+00
    outer loop
      vertex 1.132437e+01 1.521673e+01 6.523181e-01
      vertex 1.434613e+01 1.951192e+01 6.523181e-01
      vertex 1.132437e+01 1.951192e+01 6.523181e-01
    endloop
  endfacet
  facet normal 0.000000e+00 0.000000e+00 -1.000000e+00
    outer loop
      vertex 1.132437e+01 1.521673e+01 1.697111e+00
      vertex 1.132437e+01 1.951192e+01 1.697111e+00
      vertex 1.434613e+01 1.951192e+01 1.697111e+00
    endloop
  endfacet
  facet normal 0.000000e+00 0.000000e+00 -1.000000e+00
    outer loop
      vertex 1.132437e+01 1.521673e+01 1.697111e+00
      vertex 1.434613e+01 1.951192e+01 1.697111e+00
      vertex 1.434613e+01 1.521673e+01 1.697111e+00
    endloop
  endfacet
  facet normal 0.000000e+00 1.000000e+00 0.000000e+00
    outer loop
      vertex 1.132437e+01 1.521673e+01 6.523181e-01
      vertex 1.132437e+01 1.521673e+01 1.697111e+00
      vertex 1.434613e+01 1.521673e+01 1.697111e+00
    endloop
  endfacet
  facet normal 0.000000e+00 1.000000e+00 0.000000e+00
    outer loop
      vertex 1.132437e+01 1.521673e+01 6.523181e-01
      vertex 1.434613e+01 1.521673e+01 1.697111e+00
      vertex 1.434613e+01 1.521673e+01 6.523181e-01
    endloop
  endfacet
  facet normal 0.000000e+00 -1.000000e+00 0.000000e+00
    outer loop
      vertex 1.434613e+01 1.951192e+01 6.523181e-01
      vertex 1.434613e+01 1.951192e+01 1.697111e+00
      vertex 1.132437e+01 1.951192e+01 1.697111e+00
    endloop
  endfacet
  facet normal 0.000000e+00 -1.000000e+00 0.000000e+00
    outer loop
      vertex 1.434613e+01 1.951192e+01 6.523181e-01
      vertex 1.132437e+01 1.951192e+01 1.697111e+00
      vertex 1.132437e+01 1.951192e+01 6.523181e-01
    endloop
  endfacet
  facet normal 1.000000e+00 0.000000e+00 0.000000e+00
    outer loop
      vertex 1.132437e+01 1.521673e+01 6.523181e-01
      vertex 1.132437e+01 1.951192e+01 6.523181e-01
      vertex 1.132437e+01 1.951192e+01 1.697111e+00
    endloop
  endfacet
  facet normal 1.000000e+00 0.000000e+00 0.000000e+00
    outer loop
      vertex 1.132437e+01 1.521673e+01 6.523181e-01
      vertex 1.132437e+01 1.951192e+01 1.697111e+00
      vertex 1.132437e+01 1.521673e+01 1.697111e+00
    endloop
  endfacet
  facet normal -1.000000e+00 0.000000e+00 0.000000e+00
    outer loop
      vertex 1.434613e+01 1.521673e+01 6.523181e-01
      vertex 1.434613e+01 1.521673e+01 1.697111e+00
      vertex 1.434613e+01 1.951192e+01 1.697111e+00
    endloop
  endfacet
  facet normal -1.000000e+00 0.000000e+00 0.000000e+00
    outer loop
      vertex 1.434613e+01 1.521673e+01 6.523181e-01
      vertex 1.434613e+01 1.951192e+01 1.697111e+00
      vertex 1.434613e+01 1.951192e+01 6.523181e-01
    endloop
  endfacet
  facet normal 0.000000e+00 0.000000e+00 1.000000e+00
    outer loop
      vertex 2.590814e+01 3.728775e+00 2.360928e-01
      vertex 2.845543e+01 3.728775e+00 2.360928e-01
      vertex 2.845543e+01 8.448410e+00 2.360928e-01
    endloop
  endfacet
  facet normal 0.000000e+00 0.000000e+00 1.000000e+00
    outer loop
      vertex 2.590814e+01 3.728775e+00 2.360928e-01
      vertex 2.845543e+01 8.448410e+00 2.360928e-01
      vertex 2.590814e+01 8.448410e+00 2.360928e-01
    endloop
  endfacet
  facet normal 0.000000e+00 0.000000e+00 -1.000000e+00
    outer loop
      vertex 2.590814e+01 3.728775e+00 3.091912e+00
      vertex 2.590814e+01 8.448410e+00 3.091912e+00
      vertex 2.845543e+01 8.448410e+00 3.091912e+00
    endloop
  endfacet
  facet normal 0.000000e+00 0.000000e+00 -1.000000e+00
    outer loop
      vertex 2.590814e+01 3.728775e+00 3.091912e+00
      vertex 2.845543e+01 8.448410e+00 3.091912e+00
      vertex 2.845543e+01 3.728775e+00 3.091912e+00
    endloop
  endfacet
  facet normal 0.000000e+00 1.000000e+00 0.000000e+00
    outer loop
      vertex 2.590814e+01 3.728775e+00 2.360928e-01
      vertex 2.590814e+01 3.728775e+00 3.091912e+00
      vertex 2.845543e+01 3.728775e+00 3.091912e+00
    endloop
  endfacet
  facet normal 0.000000e+00 1.000000e+00 0.000000e+00
    outer loop
      vertex 2.590814e+01 3.728775e+00 2.360928e-01
      vertex 2.845543e+01 3.728775e+00 3.091912e+00
      vertex 2.845543e+01 3.728775e+00 2.360928e-01
    endloop
  endfacet
  facet normal 0.000000e+00 -1.000000e+00 0.000000e+00
    outer loop
      vertex 2.845543e+01 8.448410e+00 2.360928e-01
      vertex 2.845543e+01 8.448410e+00 3.091912e+00
      vertex 2.590814e+01 8.448410e+00 3.091912e+00
    endloop
  endfacet
  facet normal 0.000000e+00 -1.000000e+00 0.000000e+00
    outer loop
      vertex 2.845543e+01 8.448410e+00 2.360928e-01
      vertex 2.590814e+01 8.448410e+00 3.091912e+00
      vertex 2.590814e+01 8.448410e+00 2.360928e-01
    endloop
  endfacet
  facet normal 1.000000e+00 0.000000e+00 0.000000e+00
    outer loop
      vertex 2.590814e+01 3.728775e+00 2.360928e-01
      vertex 2.590814e+01 8.448410e+00 2.360928e-01
      vertex 2.590814e+01 8.448410e+00 3.091912e+00
    endloop
  endfacet
  facet normal 1.000000e+00 0.000000e+00 0.000000e+00
    outer loop
      vertex 2.590814e+01 3.728775e+00 2.360928e-01
      vertex 2.590814e+01 8.448410e+00 3.091912e+00
      vertex 2.590814e+01 3.728775e+00 3.091912e+00
    endloop
  endfacet
  facet normal -1.000000e+00 0.000000e+00 0.000000e+00
    outer loop
      vertex 2.845543e+01 3.728775e+00 2.360928e-01
      vertex 2.845543e+01 3.728775e+00 3.091912e+00
      vertex 2.845543e+01 8.448410e+00 3.091912e+00
    endloop
  endfacet
  facet normal -1.000000e+00 0.000000e+00 0.000000e+00
    outer loop
      vertex 2.845543e+01 3.728775e+00 2.360928e-01
      vertex 2.845543e+01 8.448410e+00 3.091912e+00
      vertex 2.845543e+01 8.448410e+00 2.360928e-01
    endloop
  endfacet
  facet normal 0.000000e+00 0.000000e+00 1.000000e+00
    outer loop
      vertex 2.017101e+01 8.495894e+00 3.293153e-03
      vertex 2.295490e+01 8.495894e+00 3.293153e-03
      vertex 2.295490e+01 1.137086e+01 3.293153e-03
    endloop
  endfacet
  facet normal 0.000000e+00 0.000000e+00 1.000000e+00
    outer loop
      vertex 2.017101e+01 8.495894e+00 3.293153e-03
      vertex 2.295490e+01 1.137086e+01 3.293153e-03
      vertex 2.017101e+01 1.137086e+01 3.293153e-03
    endloop
  endfacet
  facet normal 0.000000e+00 0.000000e+00 -1.000000e+00
    outer loop
      vertex 2.017101e+01 8.495894e+00 1.372681e+00
      vertex 2.017101e+01 1.137086e+01 1.372681e+00
      vertex 2.295490e+01 1.137086e+01 1.372681e+00
    endloop
  endfacet
  facet normal 0.000000e+00 0.000000e+00 -1.000000e+00
    outer loop
      vertex 2.017101e+01 8.495894e+00 1.372681e+00
      vertex 2.295490e+01 1.137086e+01 1.372681e+00
      vertex 2.295490e+01 8.495894e+00 1.372681e+00
    endloop
  endfacet
  facet normal 0.000000e+00 1.000000e+00 0.000000e+00
    outer loop
      vertex 2.017101e+01 8.495894e+00 3.293153e-03
      vertex 2.017101e+01 8.495894e+00 1.372681e+00
      vertex 2.295490e+01 8.495894e+00 1.372681e+00
    endloop
  endfacet
  facet normal 0.000000e+00 1.000000e+00 0.000000e+00
    outer loop
      vertex 2.017101e+01 8.495894e+00 3.293153e-03
      vertex 2.295490e+01 8.495894e+00 1.372681e+00
      vertex 2.295490e+01 8.495894e+00 3.293153e-03
    endloop
  endfacet
  facet normal 0.000000e+00 -1.000000e+00 0.000000e+00
    outer loop
      vertex 2.295490e+01 1.137086e+01 3.293153e-03
      vertex 2.295490e+01 1.137086e+01 1.372681e+00
      vertex 2.017101e+01 1.137086e+01 1.372681e+00
    endloop
  endfacet
  facet normal 0.000000e+00 -1.000000e+00 0.000000e+00
    outer loop
      vertex 2.295490e+01 1.137086e+01 3.293153e-03
      vertex 2.017101e+01 1.137086e+01 1.372681e+00
      vertex 2.017101e+01 1.137086e+01 3.293153e-03
    endloop
  endfacet
  facet normal 1.000000e+00 0.000000e+00 0.000000e+00
    outer loop
      vertex 2.017101e+01 8.495894e+00 3.293153e-03
      vertex 2.017101e+01 1.137086e+01 3.293153e-03
      vertex 2.017101e+01 1.137086e+01 1.372681e+00
    endloop
  endfacet
  facet normal 1.000000e+00 0.000000e+00 0.000000e+00
    outer loop
      vertex 2.017101e+01 8.495894e+00 3.293153e-03
      vertex 2.017101e+01 1.137086e+01 1.372681e+00
      vertex 2.017101e+01 8.495894e+00 1.372681e+00
    endloop
  endfacet
  facet normal -1.000000e+00 0.000000e+00 0.000000e+00
    outer loop
      vertex 2.295490e+01 8.495894e+00 3.293153e-03
      vertex 2.295490e+01 8.495894e+00 1.372681e+00
      vertex 2.295490e+01 1.137086e+01 1.372681e+00
    endloop
  endfacet
  facet normal -1.000000e+00 0.000000e+00 0.000000e+00
    outer loop
      vertex 2.295490e+01 8.495894e+00 3.293153e-03
      vertex 2.295490e+01 1.137086e+01 1.372681e+00
      vertex 2.295490e+01 1.137086e+01 3.293153e-03
    endloop
  endfacet
  facet normal 0.000000e+00 0.000000e+00 1.000000e+00
    outer loop
      vertex 1.898978e+01 2.078042e+01 1.785202e+00
      vertex 2.411008e+01 2.078042e+01 1.785202e+00
      vertex 2.411008e+01 2.488179e+01 1.785202e+00
    endloop
  endfacet
  facet normal 0.000000e+00 0.000000e+00 1.000000e+00
    outer loop
      vertex 1.898978e+01 2.078042e+01 1.785202e+00
      vertex 2.411008e+01 2.488179e+01 1.785202e+00
      vertex 1.898978e+01 2.488179e+01 1.785202e+00
    endloop
  endfacet
  facet normal 0.000000e+00 0.000000e+00 -1.000000e+00
    outer loop
      vertex 1.898978e+01 2.078042e+01 3.146139e+00
      vertex 1.898978e+01 2.488179e+01 3.146139e+00
      vertex 2.411008e+01 2.488179e+01 3.146139e+00
    endloop
  endfacet
  facet normal 0.000000e+00 0.000000e+00 -1.000000e+00
    outer loop
      vertex 1.898978e+01 2.078042e+01 3.146139e+00
      vertex 2.411008e+01 2.488179e+01 3.146139e+00
      vertex 2.411008e+01 2.078042e+01 3.146139e+00
    endloop
  endfacet
  facet normal 0.000000e+00 1.000000e+00 0.000000e+00
    outer loop
      vertex 1.898978e+01 2.078042e+01 1.785202e+00
      vertex 1.898978e+01 2.078042e+01 3.146139e+00
      vertex 2.411008e+01 2.078042e+01 3.146139e+00
    endloop
  endfacet
  facet normal 0.000000e+00 1.000000e+00 0.000000e+00
    outer loop
      vertex 1.898978e+01 2.078042e+01 1.785202e+00
      vertex 2.411008e+01 2.078042e+01 3.146139e+00
      vertex 2.411008e+01 2.078042e+01 1.785202e+00
    endloop
  endfacet
  facet normal 0.000000e+00 -1.000000e+00 0.000000e+00
    outer loop
      vertex 2.411008e+01 2.488179e+01 1.785202e+00
      vertex 2.411008e+01 2.488179e+01 3.146139e+00
      vertex 1.898978e+01 2.488179e+01 3.146139e+00
    endloop
  endfacet
  facet normal 0.000000e+00 -1.000000e+00 0.000000e+00
    outer loop
      vertex 2.411008e+01 2.488179e+01 1.785202e+00
      vertex 1.898978e+01 2.488179e+01 3.146139e+00
      vertex 1.898978e+01 2.488179e+01 1.785202e+00
    endloop
  endfacet
  facet normal 1.000000e+00 0.000000e+00 0.000000e+00
    outer loop
      vertex 1.898978e+01 2.078042e+01 1.785202e+00
      vertex 1.898978e+01 2.488179e+01 1.785202e+00
      vertex 1.898978e+01 2.488179e+01 3.146139e+00
    endloop
  endfacet
  facet normal 1.000000e+00 0.000000e+00 0.000000e+00
    outer loop
      vertex 1.898978e+01 2.078042e+01 1.785202e+00
      vertex 1.898978e+01 2.488179e+01 3.146139e+00
      vertex 1.898978e+01 2.078042e+01 3.146139e+00
    endloop
  endfacet
  facet normal -1.000000e+00 0.000000e+00 0.000000e+00
    outer loop
      vertex 2.411008e+01 2.078042e+01 1.785202e+00
      vertex 2.411008e+01 2.078042e+01 3.146139e+00
      vertex 2.411008e+01 2.488179e+01 3.146139e+00
    endloop
  endfacet
  facet normal -1.000000e+00 0.000000e+00 0.000000e+00
    outer loop
      vertex 2.411008e+01 2.078042e+01 1.785202e+00
      vertex 2.411008e+01 2.488179e+01 3.146139e+00
      vertex 2.411008e+01 2.488179e+01 1.785202e+00
    endloop
  endfacet
  facet normal 0.000000e+00 0.000000e+00 1.000000e+00
    outer loop
      vertex 1.354804e+01 1.367672e+01 1.436628e+00
      vertex 1.699263e+01 1.367672e+01 1.436628e+00
      vertex 1.699263e+01 1.830730e+01 1.436628e+00
    endloop
  endfacet
  facet normal 0.000000e+00 0.000000e+00 1.000000e+00
    outer loop
      vertex 1.354804e+01 1.367672e+01 1.436628e+00
      vertex 1.699263e+01 1.830730e+01 1.436628e+00
      vertex 1.354804e+01 1.830730e+01 1.436628e+00
    endloop
  endfacet
  facet normal 0.000000e+00 0.000000e+00 -1.000000e+00
    outer loop
      vertex 1.354804e+01 1.367672e+01 2.506290e+00
      vertex 1.354804e+01 1.830730e+01 2.506290e+00
      vertex 1.699263e+01 1.830730e+01 2.506290e+00
    endloop
  endfacet
  facet normal 0.000000e+00 0.000000e+00 -1.000000e+00
    outer loop
      vertex 1.354804e+01 1.367672e+01 2.506290e+00
      vertex 1.699263e+01 1.830730e+01 2.506290e+00
      vertex 1.699263e+01 1.367672e+01 2.506290e+00
    endloop
  endfacet
  facet normal 0.000000e+00 1.000000e+00 0.000000e+00
    outer loop
      vertex 1.354804e+01 1.367672e+01 1.436628e+00
      vertex 1.354804e+01 1.367672e+01 2.506290e+00
      vertex 1.699263e+01 1.367672e+01 2.506290e+00
    endloop
  endfacet
  facet normal 0.000000e+00 1.000000e+00 0.000000e+00
    outer loop
      vertex 1.354804e+01 1.367672e+01 1.436628e+00
      vertex 1.699263e+01 1.367672e+01 2.506290e+00
      vertex 1.699263e+01 1.367672e+01 1.436628e+00
    endloop
  endfacet
  facet normal 0.000000e+00 -1.000000e+00 0.000000e+00
    outer loop
      vertex 1.699263e+01 1.830730e+01 1.436628e+00
      vertex 1.699263e+01 1.830730e+01 2.506290e+00
      vertex 1.354804e+01 1.830730e+01 2.506290e+00
    endloop
  endfacet
  facet normal 0.000000e+00 -1.000000e+00 0.000000e+00
    outer loop
      vertex 1.699263e+01 1.830730e+01 1.436628e+00
      vertex 1.354804e+01 1.830730e+01 2.506290e+00
      vertex 1.354804e+01 1.830730e+01 1.436628e+00
    endloop
  endfacet
  facet normal 1.000000e+00 0.000000e+00 0.000000e+00
    outer loop
      vertex 1.354804e+01 1.367672e+01 1.436628e+00
      vertex 1.354804e+01 1.830730e+01 1.436628e+00
      vertex 1.354804e+01 1.830730e+01 2.506290e+00
    endloop
  endfacet
  facet normal 1.000000e+00 0.000000e+00 0.000000e+00
    outer loop
      vertex 1.354804e+01 1.367672e+01 1.436628e+00
      vertex 1.354804e+01 1.830730e+01 2.506290e+00
      vertex 1.354804e+01 1.367672e+01 2.506290e+00
    endloop
  endfacet
  facet normal -1.000000e+00 0.000000e+00 0.000000e+00
    outer loop
      vertex 1.699263e+01 1.367672e+01 1.436628e+00
      vertex 1.699263e+01 1.367672e+01 2.506290e+00
      vertex 1.699263e+01 1.830730e+01 2.506290e+00
    endloop
  endfacet
  facet normal -1.000000e+00 0.000000e+00 0.000000e+00
    outer loop
      vertex 1.699263e+01 1.367672e+01 1.436628e+00
      vertex 1.699263e+01 1.830730e+01 2.506290e+00
      vertex 1.699263e+01 1.830730e+01 1.436628e+00
    endloop
  endfacet
  facet normal 0.000000e+00 0.000000e+00 1.000000e+00
    outer loop
      vertex 1.902064e+01 2.126818e+01 8.508415e-01
      vertex 2.312558e+01 2.126818e+01 8.508415e-01
      vertex 2.312558e+01 2.366268e+01 8.508415e-01
    endloop
  endfacet
  facet normal 0.000000e+00 0.000000e+00 1.000000e+00
    outer loop
      vertex 1.902064e+01 2.126818e+01 8.508415e-01
      vertex 2.312558e+01 2.366268e+01 8.508415e-01
      vertex 1.902064e+01 2.366268e+01 8.508415e-01
    endloop
  endfacet
  facet normal 0.000000e+00 0.000000e+00 -1.000000e+00
    outer loop
      vertex 1.902064e+01 2.126818e+01 2.847246e+00
      vertex 1.902064e+01 2.366268e+01 2.847246e+00
      vertex 2.312558e+01 2.366268e+01 2.847246e+00
    endloop
  endfacet
  facet normal 0.000000e+00 0.000000e+00 -1.000000e+00
    outer loop
      vertex 1.902064e+01 2.126818e+01 2.847246e+00
      vertex 2.312558e+01 2.366268e+01 2.847246e+00
      vertex 2.312558e+01 2.126818e+01 2.847246e+00
    endloop
  endfacet
  facet normal 0.000000e+00 1.000000e+00 0.000000e+00
    outer loop
      vertex 1.902064e+01 2.126818e+01 8.508415e-01
      vertex 1.902064e+01 2.126818e+01 2.847246e+00
      vertex 2.312558e+01 2.126818e+01 2.847246e+00
    endloop
  endfacet
  facet normal 0.000000e+00 1.000000e+00 0.000000e+00
    outer loop
      vertex 1.902064e+01 2.126818e+01 8.508415e-01
      vertex 2.312558e+01 2.126818e+01 2.847246e+00
      vertex 2.312558e+01 2.126818e+01 8.508415e-01
    endloop
  endfacet
  facet normal 0.000000e+00 -1.000000e+00 0.000000e+00
    outer loop
      vertex 2.312558e+01 2.366268e+01 8.508415e-01
      vertex 2.312558e+01 2.366268e+01 2.847246e+00
      vertex 1.902064e+01 2.366268e+01 2.847246e+00
    endloop
  endfacet
  facet normal 0.000000e+00 -1.000000e+00 0.000000e+00
    outer loop
      vertex 2.312558e+01 2.366268e+01 8.508415e-01
      vertex 1.902064e+01 2.366268e+01 2.847246e+00
      vertex 1.902064e+01 2.366268e+01 8.508415e-01
    endloop
  endfacet
  facet normal 1.000000e+00 0.000000e+00 0.000000e+00
    outer loop
      vertex 1.902064e+01 2.126818e+01 8.508415e-01
      vertex 1.902064e+01 2.366268e+01 8.508415e-01
      vertex 1.902064e+01 2.366268e+01 2.847246e+00
    endloop
  endfacet
  facet normal 1.000000e+00 0.000000e+00 0.000000e+00
    outer loop
      vertex 1.902064e+01 2.126818e+01 8.508415e-01
      vertex 1.902064e+01 2.366268e+01 2.847246e+00
      vertex 1.902064e+01 2.126818e+01 2.847246e+00
    endloop
  endfacet
  facet normal -1.000000e+00 0.000000e+00 0.000000e+00
    outer loop
      vertex 2.312558e+01 2.126818e+01 8.508415e-01
      vertex 2.312558e+01 2.126818e+01 2.847246e+00
      vertex 2.312558e+01 2.366268e+01 2.847246e+00
    endloop
  endfacet
  facet normal -1.000000e+00 0.000000e+00 0.000000e+00
    outer loop
      vertex 2.312558e+01 2.126818e+01 8.508415e-01
      vertex 2.312558e+01 2.366268e+01 2.847246e+00
      vertex 2.312558e+01 2.366268e+01 8.508415e-01
    endloop
  endfacet
endsolid debris
