solid debris
  facet normal 0.000000e+00 0.000000e+00 1.000000e+00
    outer loop
      vertex 1.136601e+01 2.163292e+01 1.426698e+00
      vertex 1.439537e+01 2.163292e+01 1.426698e+00
      vertex 1.439537e+01 2.534285e+01 1.426698e+00
    endloop
  endfacet
  facet normal 0.000000e+00 0.000000e+00 1.000000e+00
    outer loop
      vertex 1.136601e+01 2.163292e+01 1.426698e+00
      vertex 1.439537e+01 2.534285e+01 1.426698e+00
      vertex 1.136601e+01 2.534285e+01 1.426698e+00
    endloop
  endfacet
  facet normal 0.000000e+00 0.000000e+00 -1.000000e+00
    outer loop
      vertex 1.136601e+01 2.163292e+01 2.494991e+00
      vertex 1.136601e+01 2.534285e+01 2.494991e+00
      vertex 1.439537e+01 2.534285e+01 2.494991e+00
    endloop
  endfacet
  facet normal 0.000000e+00 0.000000e+00 -1.000000e+00
    outer loop
      vertex 1.136601e+01 2.163292e+01 2.494991e+00
      vertex 1.439537e+01 2.534285e+01 2.494991e+00
      vertex 1.439537e+01 2.163292e+01 2.494991e+00
    endloop
  endfacet
  facet normal 0.000000e+00 1.000000e+00 0.000000e+00
    outer loop
      vertex 1.136601e+01 2.163292e+01 1.426698e+00
      vertex 1.136601e+01 2.163292e+01 2.494991e+00
      vertex 1.439537e+01 2.163292e+01 2.494991e+00
    endloop
  endfacet
  facet normal 0.000000e+00 1.000000e+00 0.000000e+00
    outer loop
      vertex 1.136601e+01 2.163292e+01 1.426698e+00
      vertex 1.439537e+01 2.163292e+01 2.494991e+00
      vertex 1.439537e+01 2.163292e+01 1.426698e+00
    endloop
  endfacet
  facet normal 0.000000e+00 -1.000000e+00 0.000000e+00
    outer loop
      vertex 1.439537e+01 2.534285e+01 1.426698e+00
      vertex 1.439537e+01 2.534285e+01 2.494991e+00
      vertex 1.136601e+01 2.534285e+01 2.494991e+00
    endloop
  endfacet
  facet normal 0.000000e+00 -1.000000e+00 0.000000e+00
    outer loop
      vertex 1.439537e+01 2.534285e+01 1.426698e+00
      vertex 1.136601e+01 2.534285e+01 2.494991e+00
      vertex 1.136601e+01 2.534285e+01 1.426698e+00
    endloop
  endfacet
  facet normal 1.000000e+00 0.000000e+00 0.000000e+00
    outer loop
      vertex 1.136601e+01 2.163292e+01 1.426698e+00
      vertex 1.136601e+01 2.534285e+01 1.426698e+00
      vertex 1.136601e+01 2.534285e+01 2.494991e+00
    endloop
  endfacet
  facet normal 1.000000e+00 0.000000e+00 0.000000e+00
    outer loop
      vertex 1.136601e+01 2.163292e+01 1.426698e+00
      vertex 1.136601e+01 2.534285e+01 2.494991e+00
      vertex 1.136601e+01 2.163292e+01 2.494991e+00
    endloop
  endfacet
  facet normal -1.000000e+00 0.000000e+00 0.000000e+00
    outer loop
      vertex 1.439537e+01 2.163292e+01 1.426698e+00
      vertex 1.439537e+01 2.163292e+01 2.494991e+00
      vertex 1.439537e+01 2.534285e+01 2.494991e+00
    endloop
  endfacet
  facet normal -1.000000e+00 0.000000e+00 0.000000e+00
    outer loop
      vertex 1.439537e+01 2.163292e+01 1.426698e+00
      vertex 1.439537e+01 2.534285e+01 2.494991e+00
      vertex 1.439537e+01 2.534285e+01 1.426698e+00
    endloop
  endfacet
  facet normal 0.000000e+00 0.000000e+00 1.000000e+00
    outer loop
      vertex 1.304134e+01 1.563578e+01 1.165548e+00
      vertex 1.579613e+01 1.563578e+01 1.165548e+00
      vertex 1.579613e+01 2.042213e+01 1.165548e+00
    endloop
  endfacet
  facet normal 0.000000e+00 0.000000e+00 1.000000e+00
    outer loop
      vertex 1.304134e+01 1.563578e+01 1.165548e+00
      vertex 1.579613e+01 2.042213e+01 1.165548e+00
      vertex 1.304134e+01 2.042213e+01 1.165548e+00
    endloop
  endfacet
  facet normal 0.000000e+00 0.000000e+00 -1.000000e+00
    outer loop
      vertex 1.304134e+01 1.563578e+01 2.923208e+00
      vertex 1.304134e+01 2.042213e+01 2.923208e+00
      vertex 1.579613e+01 2.042213e+01 2.923208e+00
    endloop
  endfacet
  facet normal 0.000000e+00 0.000000e+00 -1.000000e+00
    outer loop
      vertex 1.304134e+01 1.563578e+01 2.923208e+00
      vertex 1.579613e+01 2.042213e+01 2.923208e+00
      vertex 1.579613e+01 1.563578e+01 2.923208e+00
    endloop
  endfacet
  facet normal 0.000000e+00 1.000000e+00 0.000000e+00
    outer loop
      vertex 1.304134e+01 1.563578e+01 1.165548e+00
      vertex 1.304134e+01 1.563578e+01 2.923208e+00
      vertex 1.579613e+01 1.563578e+01 2.923208e+00
    endloop
  endfacet
  facet normal 0.000000e+00 1.000000e+00 0.000000e+00
    outer loop
      vertex 1.304134e+01 1.563578e+01 1.165548e+00
      vertex 1.579613e+01 1.563578e+01 2.923208e+00
      vertex 1.579613e+01 1.563578e+01 1.165548e+00
    endloop
  endfacet
  facet normal 0.000000e+00 -1.000000e+00 0.000000e+00
    outer loop
      vertex 1.579613e+01 2.042213e+01 1.165548e+00
      vertex 1.579613e+01 2.042213e+01 2.923208e+00
      vertex 1.304134e+01 2.042213e+01 2.923208e+00
    endloop
  endfacet
  facet normal 0.000000e+00 -1.000000e+00 0.000000e+00
    outer loop
      vertex 1.579613e+01 2.042213e+01 1.165548e+00
      vertex 1.304134e+01 2.042213e+01 2.923208e+00
      vertex 1.304134e+01 2.042213e+01 1.165548e+00
    endloop
  endfacet
  facet normal 1.000000e+00 0.000000e+00 0.000000e+00
    outer loop
      vertex 1.304134e+01 1.563578e+01 1.165548e+00
      vertex 1.304134e+01 2.042213e+01 1.165548e+00
      vertex 1.304134e+01 2.042213e+01 2.923208e+00
    endloop
  endfacet
  facet normal 1.000000e+00 0.000000e+00 0.000000e+00
    outer loop
      vertex 1.304134e+01 1.563578e+01 1.165548e+00
      vertex 1.304134e+01 2.042213e+01 2.923208e+00
      vertex 1.304134e+01 1.563578e+01 2.923208e+00
    endloop
  endfacet
  facet normal -1.000000e+00 0.000000e+00 0.000000e+00
    outer loop
      vertex 1.579613e+01 1.563578e+01 1.165548e+00
      vertex 1.579613e+01 1.563578e+01 2.923208e+00
      vertex 1.579613e+01 2.042213e+01 2.923208e+00
    endloop
  endfacet
  facet normal -1.000000e+00 0.000000e+00 0.000000e+00
    outer loop
      vertex 1.579613e+01 1.563578e+01 1.165548e+00
      vertex 1.579613e+01 2.042213e+01 2.923208e+00
      vertex 1.579613e+01 2.042213e+01 1.165548e+00
    endloop
  endfacet
  facet normal 0.000000e+00 0.000000e+00 1.000000e+00
    outer loop
      vertex 2.502853e+01 1.983118e+01 -5.064810e-01
      vertex 2.772713e+01 1.983118e+01 -5.064810e-01
      vertex 2.772713e+01 2.352883e+01 -5.064810e-01
    endloop
  endfacet
  facet normal 0.000000e+00 0.000000e+00 1.000000e+00
    outer loop
      vertex 2.502853e+01 1.983118e+01 -5.064810e-01
      vertex 2.772713e+01 2.352883e+01 -5.064810e-01
      vertex 2.502853e+01 2.352883e+01 -5.064810e-01
    endloop
  endfacet
  facet normal 0.000000e+00 0.000000e+00 -1.000000e+00
    outer loop
      vertex 2.502853e+01 1.983118e+01 2.448941e+00
      vertex 2.502853e+01 2.352883e+01 2.448941e+00
      vertex 2.772713e+01 2.352883e+01 2.448941e+00
    endloop
  endfacet
  facet normal 0.000000e+00 0.000000e+00 -1.000000e+00
    outer loop
      vertex 2.502853e+01 1.983118e+01 2.448941e+00
      vertex 2.772713e+01 2.352883e+01 2.448941e+00
      vertex 2.772713e+01 1.983118e+01 2.448941e+00
    endloop
  endfacet
  facet normal 0.000000e+00 1.000000e+00 0.000000e+00
    outer loop
      vertex 2.502853e+01 1.983118e+01 -5.064810e-01
      vertex 2.502853e+01 1.983118e+01 2.448941e+00
      vertex 2.772713e+01 1.983118e+01 2.448941e+00
    endloop
  endfacet
  facet normal 0.000000e+00 1.000000e+00 0.000000e+00
    outer loop
      vertex 2.502853e+01 1.983118e+01 -5.064810e-01
      vertex 2.772713e+01 1.983118e+01 2.448941e+00
      vertex 2.772713e+01 1.983118e+01 -5.064810e-01
    endloop
  endfacet
  facet normal 0.000000e+00 -1.000000e+00 0.000000e+00
    outer loop
      vertex 2.772713e+01 2.352883e+01 -5.064810e-01
      vertex 2.772713e+01 2.352883e+01 2.448941e+00
      vertex 2.502853e+01 2.352883e+01 2.448941e+00
    endloop
  endfacet
  facet normal 0.000000e+00 -1.000000e+00 0.000000e+00
    outer loop
      vertex 2.772713e+01 2.352883e+01 -5.064810e-01
      vertex 2.502853e+01 2.352883e+01 2.448941e+00
      vertex 2.502853e+01 2.352883e+01 -5.064810e-01
    endloop
  endfacet
  facet normal 1.000000e+00 0.000000e+00 0.000000e+00
    outer loop
      vertex 2.502853e+01 1.983118e+01 -5.064810e-01
      vertex 2.502853e+01 2.352883e+01 -5.064810e-01
      vertex 2.502853e+01 2.352883e+01 2.448941e+00
    endloop
  endfacet
  facet normal 1.000000e+00 0.000000e+00 0.000000e+00
    outer loop
      vertex 2.502853e+01 1.983118e+01 -5.064810e-01
      vertex 2.502853e+01 2.352883e+01 2.448941e+00
      vertex 2.502853e+01 1.983118e+01 2.448941e+00
    endloop
  endfacet
  facet normal -1.000000e+00 0.000000e+00 0.000000e+00
    outer loop
      vertex 2.772713e+01 1.983118e+01 -5.064810e-01
      vertex 2.772713e+01 1.983118e+01 2.448941e+00
      vertex 2.772713e+01 2.352883e+01 2.448941e+00
    endloop
  endfacet
  facet normal -1.000000e+00 0.000000e+00 0.000000e+00
    outer loop
      vertex 2.772713e+01 1.983118e+01 -5.064810e-01
      vertex 2.772713e+01 2.352883e+01 2.448941e+00
      vertex 2.772713e+01 2.352883e+01 -5.064810e-01
    endloop
  endfacet
  facet normal 0.000000e+00 0.000000e+00 1.000000e+00
    outer loop
      vertex 1.969125e+01 1.910873e+01 -1.565745e-02
      vertex 2.470735e+01 1.910873e+01 -1.565745e-02
      vertex 2.470735e+01 2.454477e+01 -1.565745e-02
    endloop
  endfacet
  facet normal 0.000000e+00 0.000000e+00 1.000000e+00
    outer loop
      vertex 1.969125e+01 1.910873e+01 -1.565745e-02
      vertex 2.470735e+01 2.454477e+01 -1.565745e-02
      vertex 1.969125e+01 2.454477e+01 -1.565745e-02
    endloop
  endfacet
  facet normal 0.000000e+00 0.000000e+00 -1.000000e+00
    outer loop
      vertex 1.969125e+01 1.910873e+01 1.714501e+00
      vertex 1.969125e+01 2.454477e+01 1.714501e+00
      vertex 2.470735e+01 2.454477e+01 1.714501e+00
    endloop
  endfacet
  facet normal 0.000000e+00 0.000000e+00 -1.000000e+00
    outer loop
      vertex 1.969125e+01 1.910873e+01 1.714501e+00
      vertex 2.470735e+01 2.454477e+01 1.714501e+00
      vertex 2.470735e+01 1.910873e+01 1.714501e+00
    endloop
  endfacet
  facet normal 0.000000e+00 1.000000e+00 0.000000e+00
    outer loop
      vertex 1.969125e+01 1.910873e+01 -1.565745e-02
      vertex 1.969125e+01 1.910873e+01 1.714501e+00
      vertex 2.470735e+01 1.910873e+01 1.714501e+00
    endloop
  endfacet
  facet normal 0.000000e+00 1.000000e+00 0.000000e+00
    outer loop
      vertex 1.969125e+01 1.910873e+01 -1.565745e-02
      vertex 2.470735e+01 1.910873e+01 1.714501e+00
      vertex 2.470735e+01 1.910873e+01 -1.565745e-02
    endloop
  endfacet
  facet normal 0.000000e+00 -1.000000e+00 0.000000e+00
    outer loop
      vertex 2.470735e+01 2.454477e+01 -1.565745e-02
      vertex 2.470735e+01 2.454477e+01 1.714501e+00
      vertex 1.969125e+01 2.454477e+01 1.714501e+00
    endloop
  endfacet
  facet normal 0.000000e+00 -1.000000e+00 0.000000e+00
    outer loop
      vertex 2.470735e+01 2.454477e+01 -1.565745e-02
      vertex 1.969125e+01 2.454477e+01 1.714501e+00
      vertex 1.969125e+01 2.454477e+01 -1.565745e-02
    endloop
  endfacet
  facet normal 1.000000e+00 0.000000e+00 0.000000e+00
    outer loop
      vertex 1.969125e+01 1.910873e+01 -1.565745e-02
      vertex 1.969125e+01 2.454477e+01 -1.565745e-02
      vertex 1.969125e+01 2.454477e+01 1.714501e+00
    endloop
  endfacet
  facet normal 1.000000e+00 0.000000e+00 0.000000e+00
    outer loop
      vertex 1.969125e+01 1.910873e+01 -1.565745e-02
      vertex 1.969125e+01 2.454477e+01 1.714501e+00
      vertex 1.969125e+01 1.910873e+01 1.714501e+00
    endloop
  endfacet
  facet normal -1.000000e+00 0.000000e+00 0.000000e+00
    outer loop
      vertex 2.470735e+01 1.910873e+01 -1.565745e-02
      vertex 2.470735e+01 1.910873e+01 1.714501e+00
      vertex 2.470735e+01 2.454477e+01 1.714501e+00
    endloop
  endfacet
  facet normal -1.000000e+00 0.000000e+00 0.000000e+00
    outer loop
      vertex 2.470735e+01 1.910873e+01 -1.565745e-02
      vertex 2.470735e+01 2.454477e+01 1.714501e+00
      vertex 2.470735e+01 2.454477e+01 -1.565745e-02
    endloop
  endfacet
endsolid debris
