solid debris
  facet normal 0.000000e+00 0.000000e+00 1.000000e+00
    outer loop
      vertex 3.328578e+01 9.748147e+00 1.451578e+00
      vertex 3.805595e+01 9.748147e+00 1.451578e+00
      vertex 3.805595e+01 1.481576e+01 1.451578e+00
    endloop
  endfacet
  facet normal 0.000000e+00 0.000000e+00 1.000000e+00
    outer loop
      vertex 3.328578e+01 9.748147e+00 1.451578e+00
      vertex 3.805595e+01 1.481576e+01 1.451578e+00
      vertex 3.328578e+01 1.481576e+01 1.451578e+00
    endloop
  endfacet
  facet normal 0.000000e+00 0.000000e+00 -1.000000e+00
    outer loop
      vertex 3.328578e+01 9.748147e+00 3.111676e+00
      vertex 3.328578e+01 1.481576e+01 3.111676e+00
      vertex 3.805595e+01 1.481576e+01 3.111676e+00
    endloop
  endfacet
  facet normal 0.000000e+00 0.000000e+00 -1.000000e+00
    outer loop
      vertex 3.328578e+01 9.748147e+00 3.111676e+00
      vertex 3.805595e+01 1.481576e+01 3.111676e+00
      vertex 3.805595e+01 9.748147e+00 3.111676e+00
    endloop
  endfacet
  facet normal 0.000000e+00 1.000000e+00 0.000000e+00
    outer loop
      vertex 3.328578e+01 9.748147e+00 1.451578e+00
      vertex 3.328578e+01 9.748147e+00 3.111676e+00
      vertex 3.805595e+01 9.748147e+00 3.111676e+00
    endloop
  endfacet
  facet normal 0.000000e+00 1.000000e+00 0.000000e+00
    outer loop
      vertex 3.328578e+01 9.748147e+00 1.451578e+00
      vertex 3.805595e+01 9.748147e+00 3.111676e+00
      vertex 3.805595e+01 9.748147e+00 1.451578e+00
    endloop
  endfacet
  facet normal 0.000000e+00 -1.000000e+00 0.000000e+00
    outer loop
      vertex 3.805595e+01 1.481576e+01 1.451578e+00
      vertex 3.805595e+01 1.481576e+01 3.111676e+00
      vertex 3.328578e+01 1.481576e+01 3.111676e+00
    endloop
  endfacet
  facet normal 0.000000e+00 -1.000000e+00 0.000000e+00
    outer loop
      vertex 3.805595e+01 1.481576e+01 1.451578e+00
      vertex 3.328578e+01 1.481576e+01 3.111676e+00
      vertex 3.328578e+01 1.481576e+01 1.451578e+00
    endloop
  endfacet
  facet normal 1.000000e+00 0.000000e+00 0.000000e+00
    outer loop
      vertex 3.328578e+01 9.748147e+00 1.451578e+00
      vertex 3.328578e+01 1.481576e+01 1.451578e+00
      vertex 3.328578e+01 1.481576e+01 3.111676e+00
    endloop
  endfacet
  facet normal 1.000000e+00 0.000000e+00 0.000000e+00
    outer loop
      vertex 3.328578e+01 9.748147e+00 1.451578e+00
      vertex 3.328578e+01 1.481576e+01 3.111676e+00
      vertex 3.328578e+01 9.748147e+00 3.111676e+00
    endloop
  endfacet
  facet normal -1.000000e+00 0.000000e+00 0.000000e+00
    outer loop
      vertex 3.805595e+01 9.748147e+00 1.451578e+00
      vertex 3.805595e+01 9.748147e+00 3.111676e+00
      vertex 3.805595e+01 1.481576e+01 3.111676e+00
    endloop
  endfacet
  facet normal -1.000000e+00 0.000000e+00 0.000000e+00
    outer loop
      vertex 3.805595e+01 9.748147e+00 1.451578e+00
      vertex 3.805595e+01 1.481576e+01 3.111676e+00
      vertex 3.805595e+01 1.481576e+01 1.451578e+00
    endloop
  endfacet
  facet normal 0.000000e+00 0.000000e+00 1.000000e+00
    outer loop
      vertex 2.329420e+01 7.793501e+00 1.014882e+00
      vertex 2.901534e+01 7.793501e+00 1.014882e+00
      vertex 2.901534e+01 1.118221e+01 1.014882e+00
    endloop
  endfacet
  facet normal 0.000000e+00 0.000000e+00 1.000000e+00
    outer loop
      vertex 2.329420e+01 7.793501e+00 1.014882e+00
      vertex 2.901534e+01 1.118221e+01 1.014882e+00
      vertex 2.329420e+01 1.118221e+01 1.014882e+00
    endloop
  endfacet
  facet normal 0.000000e+00 0.000000e+00 -1.000000e+00
    outer loop
      vertex 2.329420e+01 7.793501e+00 2.211903e+00
      vertex 2.329420e+01 1.118221e+01 2.211903e+00
      vertex 2.901534e+01 1.118221e+01 2.211903e+00
    endloop
  endfacet
  facet normal 0.000000e+00 0.000000e+00 -1.000000e+00
    outer loop
      vertex 2.329420e+01 7.793501e+00 2.211903e+00
      vertex 2.901534e+01 1.118221e+01 2.211903e+00
      vertex 2.901534e+01 7.793501e+00 2.211903e+00
    endloop
  endfacet
  facet normal 0.000000e+00 1.000000e+00 0.000000e+00
    outer loop
      vertex 2.329420e+01 7.793501e+00 1.014882e+00
      vertex 2.329420e+01 7.793501e+00 2.211903e+00
      vertex 2.901534e+01 7.793501e+00 2.211903e+00
    endloop
  endfacet
  facet normal 0.000000e+00 1.000000e+00 0.000000e+00
    outer loop
      vertex 2.329420e+01 7.793501e+00 1.014882e+00
      vertex 2.901534e+01 7.793501e+00 2.211903e+00
      vertex 2.901534e+01 7.793501e+00 1.014882e+00
    endloop
  endfacet
  facet normal 0.000000e+00 -1.000000e+00 0.000000e+00
    outer loop
      vertex 2.901534e+01 1.118221e+01 1.014882e+00
      vertex 2.901534e+01 1.118221e+01 2.211903e+00
      vertex 2.329420e+01 1.118221e+01 2.211903e+00
    endloop
  endfacet
  facet normal 0.000000e+00 -1.000000e+00 0.000000e+00
    outer loop
      vertex 2.901534e+01 1.118221e+01 1.014882e+00
      vertex 2.329420e+01 1.118221e+01 2.211903e+00
      vertex 2.329420e+01 1.118221e+01 1.014882e+00
    endloop
  endfacet
  facet normal 1.000000e+00 0.000000e+00 0.000000e+00
    outer loop
      vertex 2.329420e+01 7.793501e+00 1.014882e+00
      vertex 2.329420e+01 1.118221e+01 1.014882e+00
      vertex 2.329420e+01 1.118221e+01 2.211903e+00
    endloop
  endfacet
  facet normal 1.000000e+00 0.000000e+00 0.000000e+00
    outer loop
      vertex 2.329420e+01 7.793501e+00 1.014882e+00
      vertex 2.329420e+01 1.118221e+01 2.211903e+00
      vertex 2.329420e+01 7.793501e+00 2.211903e+00
    endloop
  endfacet
  facet normal -1.000000e+00 0.000000e+00 0.000000e+00
    outer loop
      vertex 2.901534e+01 7.793501e+00 1.014882e+00
      vertex 2.901534e+01 7.793501e+00 2.211903e+00
      vertex 2.901534e+01 1.118221e+01 2.211903e+00
    endloop
  endfacet
  facet normal -1.000000e+00 0.000000e+00 0.000000e+00
    outer loop
      vertex 2.901534e+01 7.793501e+00 1.014882e+00
      vertex 2.901534e+01 1.118221e+01 2.211903e+00
      vertex 2.901534e+01 1.118221e+01 1.014882e+00
    endloop
  endfacet
  facet normal 0.000000e+00 0.000000e+00 1.000000e+00
    outer loop
      vertex 1.769701e+01 6.471429e+00 -7.557044e-01
      vertex 2.315406e+01 6.471429e+00 -7.557044e-01
      vertex 2.315406e+01 1.242394e+01 -7.557044e-01
    endloop
  endfacet
  facet normal 0.000000e+00 0.000000e+00 1.000000e+00
    outer loop
      vertex 1.769701e+01 6.471429e+00 -7.557044e-01
      vertex 2.315406e+01 1.242394e+01 -7.557044e-01
      vertex 1.769701e+01 1.242394e+01 -7.557044e-01
    endloop
  endfacet
  facet normal 0.000000e+00 0.000000e+00 -1.000000e+00
    outer loop
      vertex 1.769701e+01 6.471429e+00 2.030659e+00
      vertex 1.769701e+01 1.242394e+01 2.030659e+00
      vertex 2.315406e+01 1.242394e+01 2.030659e+00
    endloop
  endfacet
  facet normal 0.000000e+00 0.000000e+00 -1.000000e+00
    outer loop
      vertex 1.769701e+01 6.471429e+00 2.030659e+00
      vertex 2.315406e+01 1.242394e+01 2.030659e+00
      vertex 2.315406e+01 6.471429e+00 2.030659e+00
    endloop
  endfacet
  facet normal 0.000000e+00 1.000000e+00 0.000000e+00
    outer loop
      vertex 1.769701e+01 6.471429e+00 -7.557044e-01
      vertex 1.769701e+01 6.471429e+00 2.030659e+00
      vertex 2.315406e+01 6.471429e+00 2.030659e+00
    endloop
  endfacet
  facet normal 0.000000e+00 1.000000e+00 0.000000e+00
    outer loop
      vertex 1.769701e+01 6.471429e+00 -7.557044e-01
      vertex 2.315406e+01 6.471429e+00 2.030659e+00
      vertex 2.315406e+01 6.471429e+00 -7.557044e-01
    endloop
  endfacet
  facet normal 0.000000e+00 -1.000000e+00 0.000000e+00
    outer loop
      vertex 2.315406e+01 1.242394e+01 -7.557044e-01
      vertex 2.315406e+01 1.242394e+01 2.030659e+00
      vertex 1.769701e+01 1.242394e+01 2.030659e+00
    endloop
  endfacet
  facet normal 0.000000e+00 -1.000000e+00 0.000000e+00
    outer loop
      vertex 2.315406e+01 1.242394e+01 -7.557044e-01
      vertex 1.769701e+01 1.242394e+01 2.030659e+00
      vertex 1.769701e+01 1.242394e+01 -7.557044e-01
    endloop
  endfacet
  facet normal 1.000000e+00 0.000000e+00 0.000000e+00
    outer loop
      vertex 1.769701e+01 6.471429e+00 -7.557044e-01
      vertex 1.769701e+01 1.242394e+01 -7.557044e-01
      vertex 1.769701e+01 1.242394e+01 2.030659e+00
    endloop
  endfacet
  facet normal 1.000000e+00 0.000000e+00 0.000000e+00
    outer loop
      vertex 1.769701e+01 6.471429e+00 -7.557044e-01
      vertex 1.769701e+01 1.242394e+01 2.030659e+00
      vertex 1.769701e+01 6.471429e+00 2.030659e+00
    endloop
  endfacet
  facet normal -1.000000e+00 0.000000e+00 0.000000e+00
    outer loop
      vertex 2.315406e+01 6.471429e+00 -7.557044e-01
      vertex 2.315406e+01 6.471429e+00 2.030659e+00
      vertex 2.315406e+01 1.242394e+01 2.030659e+00
    endloop
  endfacet
  facet normal -1.000000e+00 0.000000e+00 0.000000e+00
    outer loop
      vertex 2.315406e+01 6.471429e+00 -7.557044e-01
      vertex 2.315406e+01 1.242394e+01 2.030659e+00
      vertex 2.315406e+01 1.242394e+01 -7.557044e-01
    endloop
  endfacet
  facet normal 0.000000e+00 0.000000e+00 1.000000e+00
    outer loop
      vertex 2.173800e+01 4.571297e+00 1.520241e+00
      vertex 2.399402e+01 4.571297e+00 1.520241e+00
      vertex 2.399402e+01 8.986973e+00 1.520241e+00
    endloop
  endfacet
  facet normal 0.000000e+00 0.000000e+00 1.000000e+00
    outer loop
      vertex 2.173800e+01 4.571297e+00 1.520241e+00
      vertex 2.399402e+01 8.986973e+00 1.520241e+00
      vertex 2.173800e+01 8.986973e+00 1.520241e+00
    endloop
  endfacet
  facet normal 0.000000e+00 0.000000e+00 -1.000000e+00
    outer loop
      vertex 2.173800e+01 4.571297e+00 3.188759e+00
      vertex 2.173800e+01 8.986973e+00 3.188759e+00
      vertex 2.399402e+01 8.986973e+00 3.188759e+00
    endloop
  endfacet
  facet normal 0.000000e+00 0.000000e+00 -1.000000e+00
    outer loop
      vertex 2.173800e+01 4.571297e+00 3.188759e+00
      vertex 2.399402e+01 8.986973e+00 3.188759e+00
      vertex 2.399402e+01 4.571297e+00 3.188759e+00
    endloop
  endfacet
  facet normal 0.000000e+00 1.000000e+00 0.000000e+00
    outer loop
      vertex 2.173800e+01 4.571297e+00 1.520241e+00
      vertex 2.173800e+01 4.571297e+00 3.188759e+00
      vertex 2.399402e+01 4.571297e+00 3.188759e+00
    endloop
  endfacet
  facet normal 0.000000e+00 1.000000e+00 0.000000e+00
    outer loop
      vertex 2.173800e+01 4.571297e+00 1.520241e+00
      vertex 2.399402e+01 4.571297e+00 3.188759e+00
      vertex 2.399402e+01 4.571297e+00 1.520241e+00
    endloop
  endfacet
  facet normal 0.000000e+00 -1.000000e+00 0.000000e+00
    outer loop
      vertex 2.399402e+01 8.986973e+00 1.520241e+00
      vertex 2.399402e+01 8.986973e+00 3.188759e+00
      vertex 2.173800e+01 8.986973e+00 3.188759e+00
    endloop
  endfacet
  facet normal 0.000000e+00 -1.000000e+00 0.000000e+00
    outer loop
      vertex 2.399402e+01 8.986973e+00 1.520241e+00
      vertex 2.173800e+01 8.986973e+00 3.188759e+00
      vertex 2.173800e+01 8.986973e+00 1.520241e+00
    endloop
  endfacet
  facet normal 1.000000e+00 0.000000e+00 0.000000e+00
    outer loop
      vertex 2.173800e+01 4.571297e+00 1.520241e+00
      vertex 2.173800e+01 8.986973e+00 1.520241e+00
      vertex 2.173800e+01 8.986973e+00 3.188759e+00
    endloop
  endfacet
  facet normal 1.000000e+00 0.000000e+00 0.000000e+00
    outer loop
      vertex 2.173800e+01 4.571297e+00 1.520241e+00
      vertex 2.173800e+01 8.986973e+00 3.188759e+00
      vertex 2.173800e+01 4.571297e+00 3.188759e+00
    endloop
  endfacet
  facet normal -1.000000e+00 0.000000e+00 0.000000e+00
    outer loop
      vertex 2.399402e+01 4.571297e+00 1.520241e+00
      vertex 2.399402e+01 4.571297e+00 3.188759e+00
      vertex 2.399402e+01 8.986973e+00 3.188759e+00
    endloop
  endfacet
  facet normal -1.000000e+00 0.000000e+00 0.000000e+00
    outer loop
      vertex 2.399402e+01 4.571297e+00 1.520241e+00
      vertex 2.399402e+01 8.986973e+00 3.188759e+00
      vertex 2.399402e+01 8.986973e+00 1.520241e+00
    endloop
  endfacet
  facet normal 0.000000e+00 0.000000e+00 1.000000e+00
    outer loop
      vertex 2.904248e+01 1.905861e+01 -4.229634e-01
      vertex 3.239228e+01 1.905861e+01 -4.229634e-01
      vertex 3.239228e+01 2.425366e+01 -4.229634e-01
    endloop
  endfacet
  facet normal 0.000000e+00 0.000000e+00 1.000000e+00
    outer loop
      vertex 2.904248e+01 1.905861e+01 -4.229634e-01
      vertex 3.239228e+01 2.425366e+01 -4.229634e-01
      vertex 2.904248e+01 2.425366e+01 -4.229634e-01
    endloop
  endfacet
  facet normal 0.000000e+00 0.000000e+00 -1.000000e+00
    outer loop
      vertex 2.904248e+01 1.905861e+01 1.445867e+00
      vertex 2.904248e+01 2.425366e+01 1.445867e+00
      vertex 3.239228e+01 2.425366e+01 1.445867e+00
    endloop
  endfacet
  facet normal 0.000000e+00 0.000000e+00 -1.000000e+00
    outer loop
      vertex 2.904248e+01 1.905861e+01 1.445867e+00
      vertex 3.239228e+01 2.425366e+01 1.445867e+00
      vertex 3.239228e+01 1.905861e+01 1.445867e+00
    endloop
  endfacet
  facet normal 0.000000e+00 1.000000e+00 0.000000e+00
    outer loop
      vertex 2.904248e+01 1.905861e+01 -4.229634e-01
      vertex 2.904248e+01 1.905861e+01 1.445867e+00
      vertex 3.239228e+01 1.905861e+01 1.445867e+00
    endloop
  endfacet
  facet normal 0.000000e+00 1.000000e+00 0.000000e+00
    outer loop
      vertex 2.904248e+01 1.905861e+01 -4.229634e-01
      vertex 3.239228e+01 1.905861e+01 1.445867e+00
      vertex 3.239228e+01 1.905861e+01 -4.229634e-01
    endloop
  endfacet
  facet normal 0.000000e+00 -1.000000e+00 0.000000e+00
    outer loop
      vertex 3.239228e+01 2.425366e+01 -4.229634e-01
      vertex 3.239228e+01 2.425366e+01 1.445867e+00
      vertex 2.904248e+01 2.425366e+01 1.445867e+00
    endloop
  endfacet
  facet normal 0.000000e+00 -1.000000e+00 0.000000e+00
    outer loop
      vertex 3.239228e+01 2.425366e+01 -4.229634e-01
      vertex 2.904248e+01 2.425366e+01 1.445867e+00
      vertex 2.904248e+01 2.425366e+01 -4.229634e-01
    endloop
  endfacet
  facet normal 1.000000e+00 0.000000e+00 0.000000e+00
    outer loop
      vertex 2.904248e+01 1.905861e+01 -4.229634e-01
      vertex 2.904248e+01 2.425366e+01 -4.229634e-01
      vertex 2.904248e+01 2.425366e+01 1.445867e+00
    endloop
  endfacet
  facet normal 1.000000e+00 0.000000e+00 0.000000e+00
    outer loop
      vertex 2.904248e+01 1.905861e+01 -4.229634e-01
      vertex 2.904248e+01 2.425366e+01 1.445867e+00
      vertex 2.904248e+01 1.905861e+01 1.445867e+00
    endloop
  endfacet
  facet normal -1.000000e+00 0.000000e+00 0.000000e+00
    outer loop
      vertex 3.239228e+01 1.905861e+01 -4.229634e-01
      vertex 3.239228e+01 1.905861e+01 1.445867e+00
      vertex 3.239228e+01 2.425366e+01 1.445867e+00
    endloop
  endfacet
  facet normal -1.000000e+00 0.000000e+00 0.000000e+00
    outer loop
      vertex 3.239228e+01 1.905861e+01 -4.229634e-01
      vertex 3.239228e+01 2.425366e+01 1.445867e+00
      vertex 3.239228e+01 2.425366e+01 -4.229634e-01
    endloop
  endfacet
  facet normal 0.000000e+00 0.000000e+00 1.000000e+00
    outer loop
      vertex 3.671314e+01 6.859085e+00 7.588016e-01
      vertex 4.233794e+01 6.859085e+00 7.588016e-01
      vertex 4.233794e+01 1.118382e+01 7.588016e-01
    endloop
  endfacet
  facet normal 0.000000e+00 0.000000e+00 1.000000e+00
    outer loop
      vertex 3.671314e+01 6.859085e+00 7.588016e-01
      vertex 4.233794e+01 1.118382e+01 7.588016e-01
      vertex 3.671314e+01 1.118382e+01 7.588016e-01
    endloop
  endfacet
  facet normal 0.000000e+00 0.000000e+00 -1.000000e+00
    outer loop
      vertex 3.671314e+01 6.859085e+00 2.012043e+00
      vertex 3.671314e+01 1.118382e+01 2.012043e+00
      vertex 4.233794e+01 1.118382e+01 2.012043e+00
    endloop
  endfacet
  facet normal 0.000000e+00 0.000000e+00 -1.000000e+00
    outer loop
      vertex 3.671314e+01 6.859085e+00 2.012043e+00
      vertex 4.233794e+01 1.118382e+01 2.012043e+00
      vertex 4.233794e+01 6.859085e+00 2.012043e+00
    endloop
  endfacet
  facet normal 0.000000e+00 1.000000e+00 0.000000e+00
    outer loop
      vertex 3.671314e+01 6.859085e+00 7.588016e-01
      vertex 3.671314e+01 6.859085e+00 2.012043e+00
      vertex 4.233794e+01 6.859085e+00 2.012043e+00
    endloop
  endfacet
  facet normal 0.000000e+00 1.000000e+00 0.000000e+00
    outer loop
      vertex 3.671314e+01 6.859085e+00 7.588016e-01
      vertex 4.233794e+01 6.859085e+00 2.012043e+00
      vertex 4.233794e+01 6.859085e+00 7.588016e-01
    endloop
  endfacet
  facet normal 0.000000e+00 -1.000000e+00 0.000000e+00
    outer loop
      vertex 4.233794e+01 1.118382e+01 7.588016e-01
      vertex 4.233794e+01 1.118382e+01 2.012043e+00
      vertex 3.671314e+01 1.118382e+01 2.012043e+00
    endloop
  endfacet
  facet normal 0.000000e+00 -1.000000e+00 0.000000e+00
    outer loop
      vertex 4.233794e+01 1.118382e+01 7.588016e-01
      vertex 3.671314e+01 1.118382e+01 2.012043e+00
      vertex 3.671314e+01 1.118382e+01 7.588016e-01
    endloop
  endfacet
  facet normal 1.000000e+00 0.000000e+00 0.000000e+00
    outer loop
      vertex 3.671314e+01 6.859085e+00 7.588016e-01
      vertex 3.671314e+01 1.118382e+01 7.588016e-01
      vertex 3.671314e+01 1.118382e+01 2.012043e+00
    endloop
  endfacet
  facet normal 1.000000e+00 0.000000e+00 0.000000e+00
    outer loop
      vertex 3.671314e+01 6.859085e+00 7.588016e-01
      vertex 3.671314e+01 1.118382e+01 2.012043e+00
      vertex 3.671314e+01 6.859085e+00 2.012043e+00
    endloop
  endfacet
  facet normal -1.000000e+00 0.000000e+00 0.000000e+00
    outer loop
      vertex 4.233794e+01 6.859085e+00 7.588016e-01
      vertex 4.233794e+01 6.859085e+00 2.012043e+00
      vertex 4.233794e+01 1.118382e+01 2.012043e+00
    endloop
  endfacet
  facet normal -1.000000e+00 0.000000e+00 0.000000e+00
    outer loop
      vertex 4.233794e+01 6.859085e+00 7.588016e-01
      vertex 4.233794e+01 1.118382e+01 2.012043e+00
      vertex 4.233794e+01 1.118382e+01 7.588016e-01
    endloop
  endfacet
endsolid debris
