solid debris
  facet normal 0.000000e+00 0.000000e+00 1.000000e+00
    outer loop
      vertex 1.687728e+01 1.412748e+01 3.557096e-01
      vertex 2.204993e+01 1.412748e+01 3.557096e-01
      vertex 2.204993e+01 1.814873e+01 3.557096e-01
    endloop
  endfacet
  facet normal 0.000000e+00 0.000000e+00 1.000000e+00
    outer loop
      vertex 1.687728e+01 1.412748e+01 3.557096e-01
      vertex 2.204993e+01 1.814873e+01 3.557096e-01
      vertex 1.687728e+01 1.814873e+01 3.557096e-01
    endloop
  endfacet
  facet normal 0.000000e+00 0.000000e+00 -1.000000e+00
    outer loop
      vertex 1.687728e+01 1.412748e+01 2.783445e+00
      vertex 1.687728e+01 1.814873e+01 2.783445e+00
      vertex 2.204993e+01 1.814873e+01 2.783445e+00
    endloop
  endfacet
  facet normal 0.000000e+00 0.000000e+00 -1.000000e+00
    outer loop
      vertex 1.687728e+01 1.412748e+01 2.783445e+00
      vertex 2.204993e+01 1.814873e+01 2.783445e+00
      vertex 2.204993e+01 1.412748e+01 2.783445e+00
    endloop
  endfacet
  facet normal 0.000000e+00 1.000000e+00 0.000000e+00
    outer loop
      vertex 1.687728e+01 1.412748e+01 3.557096e-01
      vertex 1.687728e+01 1.412748e+01 2.783445e+00
      vertex 2.204993e+01 1.412748e+01 2.783445e+00
    endloop
  endfacet
  facet normal 0.000000e+00 1.000000e+00 0.000000e+00
    outer loop
      vertex 1.687728e+01 1.412748e+01 3.557096e-01
      vertex 2.204993e+01 1.412748e+01 2.783445e+00
      vertex 2.204993e+01 1.412748e+01 3.557096e-01
    endloop
  endfacet
  facet normal 0.000000e+00 -1.000000e+00 0.000000e+00
    outer loop
      vertex 2.204993e+01 1.814873e+01 3.557096e-01
      vertex 2.204993e+01 1.814873e+01 2.783445e+00
      vertex 1.687728e+01 1.814873e+01 2.783445e+00
    endloop
  endfacet
  facet normal 0.000000e+00 -1.000000e+00 0.000000e+00
    outer loop
      vertex 2.204993e+01 1.814873e+01 3.557096e-01
      vertex 1.687728e+01 1.814873e+01 2.783445e+00
      vertex 1.687728e+01 1.814873e+01 3.557096e-01
    endloop
  endfacet
  facet normal 1.000000e+00 0.000000e+00 0.000000e+00
    outer loop
      vertex 1.687728e+01 1.412748e+01 3.557096e-01
      vertex 1.687728e+01 1.814873e+01 3.557096e-01
      vertex 1.687728e+01 1.814873e+01 2.783445e+00
    endloop
  endfacet
  facet normal 1.000000e+00 0.000000e+00 0.000000e+00
    outer loop
      vertex 1.687728e+01 1.412748e+01 3.557096e-01
      vertex 1.687728e+01 1.814873e+01 2.783445e+00
      vertex 1.687728e+01 1.412748e+01 2.783445e+00
    endloop
  endfacet
  facet normal -1.000000e+00 0.000000e+00 0.000000e+00
    outer loop
      vertex 2.204993e+01 1.412748e+01 3.557096e-01
      vertex 2.204993e+01 1.412748e+01 2.783445e+00
      vertex 2.204993e+01 1.814873e+01 2.783445e+00
    endloop
  endfacet
  facet normal -1.000000e+00 0.000000e+00 0.000000e+00
    outer loop
      vertex 2.204993e+01 1.412748e+01 3.557096e-01
      vertex 2.204993e+01 1.814873e+01 2.783445e+00
      vertex 2.204993e+01 1.814873e+01 3.557096e-01
    endloop
  endfacet
  facet normal 0.000000e+00 0.000000e+00 1.000000e+00
    outer loop
      vertex 2.076100e+01 6.106676e+00 1.393220e+00
      vertex 2.539046e+01 6.106676e+00 1.393220e+00
      vertex 2.539046e+01 1.007900e+01 1.393220e+00
    endloop
  endfacet
  facet normal 0.000000e+00 0.000000e+00 1.000000e+00
    outer loop
      vertex 2.076100e+01 6.106676e+00 1.393220e+00
      vertex 2.539046e+01 1.007900e+01 1.393220e+00
      vertex 2.076100e+01 1.007900e+01 1.393220e+00
    endloop
  endfacet
  facet normal 0.000000e+00 0.000000e+00 -1.000000e+00
    outer loop
      vertex 2.076100e+01 6.106676e+00 2.834020e+00
      vertex 2.076100e+01 1.007900e+01 2.834020e+00
      vertex 2.539046e+01 1.007900e+01 2.834020e+00
    endloop
  endfacet
  facet normal 0.000000e+00 0.000000e+00 -1.000000e+00
    outer loop
      vertex 2.076100e+01 6.106676e+00 2.834020e+00
      vertex 2.539046e+01 1.007900e+01 2.834020e+00
      vertex 2.539046e+01 6.106676e+00 2.834020e+00
    endloop
  endfacet
  facet normal 0.000000e+00 1.000000e+00 0.000000e+00
    outer loop
      vertex 2.076100e+01 6.106676e+00 1.393220e+00
      vertex 2.076100e+01 6.106676e+00 2.834020e+00
      vertex 2.539046e+01 6.106676e+00 2.834020e+00
    endloop
  endfacet
  facet normal 0.000000e+00 1.000000e+00 0.000000e+00
    outer loop
      vertex 2.076100e+01 6.106676e+00 1.393220e+00
      vertex 2.539046e+01 6.106676e+00 2.834020e+00
      vertex 2.539046e+01 6.106676e+00 1.393220e+00
    endloop
  endfacet
  facet normal 0.000000e+00 -1.000000e+00 0.000000e+00
    outer loop
      vertex 2.539046e+01 1.007900e+01 1.393220e+00
      vertex 2.539046e+01 1.007900e+01 2.834020e+00
      vertex 2.076100e+01 1.007900e+01 2.834020e+00
    endloop
  endfacet
  facet normal 0.000000e+00 -1.000000e+00 0.000000e+00
    outer loop
      vertex 2.539046e+01 1.007900e+01 1.393220e+00
      vertex 2.076100e+01 1.007900e+01 2.834020e+00
      vertex 2.076100e+01 1.007900e+01 1.393220e+00
    endloop
  endfacet
  facet normal 1.000000e+00 0.000000e+00 0.000000e+00
    outer loop
      vertex 2.076100e+01 6.106676e+00 1.393220e+00
      vertex 2.076100e+01 1.007900e+01 1.393220e+00
      vertex 2.076100e+01 1.007900e+01 2.834020e+00
    endloop
  endfacet
  facet normal 1.000000e+00 0.000000e+00 0.000000e+00
    outer loop
      vertex 2.076100e+01 6.106676e+00 1.393220e+00
      vertex 2.076100e+01 1.007900e+01 2.834020e+00
      vertex 2.076100e+01 6.106676e+00 2.834020e+00
    endloop
  endfacet
  facet normal -1.000000e+00 0.000000e+00 0.000000e+00
    outer loop
      vertex 2.539046e+01 6.106676e+00 1.393220e+00
      vertex 2.539046e+01 6.106676e+00 2.834020e+00
      vertex 2.539046e+01 1.007900e+01 2.834020e+00
    endloop
  endfacet
  facet normal -1.000000e+00 0.000000e+00 0.000000e+00
    outer loop
      vertex 2.539046e+01 6.106676e+00 1.393220e+00
      vertex 2.539046e+01 1.007900e+01 2.834020e+00
      vertex 2.539046e+01 1.007900e+01 1.393220e+00
    endloop
  endfacet
  facet normal 0.000000e+00 0.000000e+00 1.000000e+00
    outer loop
      vertex 3.092431e+01 1.507537e+01 5.933936e-01
      vertex 3.481146e+01 1.507537e+01 5.933936e-01
      vertex 3.481146e+01 1.718717e+01 5.933936e-01
    endloop
  endfacet
  facet normal 0.000000e+00 0.000000e+00 1.000000e+00
    outer loop
      vertex 3.092431e+01 1.507537e+01 5.933936e-01
      vertex 3.481146e+01 1.718717e+01 5.933936e-01
      vertex 3.092431e+01 1.718717e+01 5.933936e-01
    endloop
  endfacet
  facet normal 0.000000e+00 0.000000e+00 -1.000000e+00
    outer loop
      vertex 3.092431e+01 1.507537e+01 2.440948e+00
      vertex 3.092431e+01 1.718717e+01 2.440948e+00
      vertex 3.481146e+01 1.718717e+01 2.440948e+00
    endloop
  endfacet
  facet normal 0.000000e+00 0.000000e+00 -1.000000e+00
    outer loop
      vertex 3.092431e+01 1.507537e+01 2.440948e+00
      vertex 3.481146e+01 1.718717e+01 2.440948e+00
      vertex 3.481146e+01 1.507537e+01 2.440948e+00
    endloop
  endfacet
  facet normal 0.000000e+00 1.000000e+00 0.000000e+00
    outer loop
      vertex 3.092431e+01 1.507537e+01 5.933936e-01
      vertex 3.092431e+01 1.507537e+01 2.440948e+00
      vertex 3.481146e+01 1.507537e+01 2.440948e+00
    endloop
  endfacet
  facet normal 0.000000e+00 1.000000e+00 0.000000e+00
    outer loop
      vertex 3.092431e+01 1.507537e+01 5.933936e-01
      vertex 3.481146e+01 1.507537e+01 2.440948e+00
      vertex 3.481146e+01 1.507537e+01 5.933936e-01
    endloop
  endfacet
  facet normal 0.000000e+00 -1.000000e+00 0.000000e+00
    outer loop
      vertex 3.481146e+01 1.718717e+01 5.933936e-01
      vertex 3.481146e+01 1.718717e+01 2.440948e+00
      vertex 3.092431e+01 1.718717e+01 2.440948e+00
    endloop
  endfacet
  facet normal 0.000000e+00 -1.000000e+00 0.000000e+00
    outer loop
      vertex 3.481146e+01 1.718717e+01 5.933936e-01
      vertex 3.092431e+01 1.718717e+01 2.440948e+00
      vertex 3.092431e+01 1.718717e+01 5.933936e-01
    endloop
  endfacet
  facet normal 1.000000e+00 0.000000e+00 0.000000e+00
    outer loop
      vertex 3.092431e+01 1.507537e+01 5.933936e-01
      vertex 3.092431e+01 1.718717e+01 5.933936e-01
      vertex 3.092431e+01 1.718717e+01 2.440948e+00
    endloop
  endfacet
  facet normal 1.000000e+00 0.000000e+00 0.000000e+00
    outer loop
      vertex 3.092431e+01 1.507537e+01 5.933936e-01
      vertex 3.092431e+01 1.718717e+01 2.440948e+00
      vertex 3.092431e+01 1.507537e+01 2.440948e+00
    endloop
  endfacet
  facet normal -1.000000e+00 0.000000e+00 0.000000e+00
    outer loop
      vertex 3.481146e+01 1.507537e+01 5.933936e-01
      vertex 3.481146e+01 1.507537e+01 2.440948e+00
      vertex 3.481146e+01 1.718717e+01 2.440948e+00
    endloop
  endfacet
  facet normal -1.000000e+00 0.000000e+00 0.000000e+00
    outer loop
      vertex 3.481146e+01 1.507537e+01 5.933936e-01
      vertex 3.481146e+01 1.718717e+01 2.440948e+00
      vertex 3.481146e+01 1.718717e+01 5.933936e-01
    endloop
  endfacet
  facet normal 0.000000e+00 0.000000e+00 1.000000e+00
    outer loop
      vertex 1.286069e+01 1.634901e+01 9.649248e-01
      vertex 1.508709e+01 1.634901e+01 9.649248e-01
      vertex 1.508709e+01 2.054156e+01 9.649248e-01
    endloop
  endfacet
  facet normal 0.000000e+00 0.000000e+00 1.000000e+00
    outer loop
      vertex 1.286069e+01 1.634901e+01 9.649248e-01
      vertex 1.508709e+01 2.054156e+01 9.649248e-01
      vertex 1.286069e+01 2.054156e+01 9.649248e-01
    endloop
  endfacet
  facet normal 0.000000e+00 0.000000e+00 -1.000000e+00
    outer loop
      vertex 1.286069e+01 1.634901e+01 3.837736e+00
      vertex 1.286069e+01 2.054156e+01 3.837736e+00
      vertex 1.508709e+01 2.054156e+01 3.837736e+00
    endloop
  endfacet
  facet normal 0.000000e+00 0.000000e+00 -1.000000e+00
    outer loop
      vertex 1.286069e+01 1.634901e+01 3.837736e+00
      vertex 1.508709e+01 2.054156e+01 3.837736e+00
      vertex 1.508709e+01 1.634901e+01 3.837736e+00
    endloop
  endfacet
  facet normal 0.000000e+00 1.000000e+00 0.000000e+00
    outer loop
      vertex 1.286069e+01 1.634901e+01 9.649248e-01
      vertex 1.286069e+01 1.634901e+01 3.837736e+00
      vertex 1.508709e+01 1.634901e+01 3.837736e+00
    endloop
  endfacet
  facet normal 0.000000e+00 1.000000e+00 0.000000e+00
    outer loop
      vertex 1.286069e+01 1.634901e+01 9.649248e-01
      vertex 1.508709e+01 1.634901e+01 3.837736e+00
      vertex 1.508709e+01 1.634901e+01 9.649248e-01
    endloop
  endfacet
  facet normal 0.000000e+00 -1.000000e+00 0.000000e+00
    outer loop
      vertex 1.508709e+01 2.054156e+01 9.649248e-01
      vertex 1.508709e+01 2.054156e+01 3.837736e+00
      vertex 1.286069e+01 2.054156e+01 3.837736e+00
    endloop
  endfacet
  facet normal 0.000000e+00 -1.000000e+00 0.000000e+00
    outer loop
      vertex 1.508709e+01 2.054156e+01 9.649248e-01
      vertex 1.286069e+01 2.054156e+01 3.837736e+00
      vertex 1.286069e+01 2.054156e+01 9.649248e-01
    endloop
  endfacet
  facet normal 1.000000e+00 0.000000e+00 0.000000e+00
    outer loop
      vertex 1.286069e+01 1.634901e+01 9.649248e-01
      vertex 1.286069e+01 2.054156e+01 9.649248e-01
      vertex 1.286069e+01 2.054156e+01 3.837736e+00
    endloop
  endfacet
  facet normal 1.000000e+00 0.000000e+00 0.000000e+00
    outer loop
      vertex 1.286069e+01 1.634901e+01 9.649248e-01
      vertex 1.286069e+01 2.054156e+01 3.837736e+00
      vertex 1.286069e+01 1.634901e+01 3.837736e+00
    endloop
  endfacet
  facet normal -1.000000e+00 0.000000e+00 0.000000e+00
    outer loop
      vertex 1.508709e+01 1.634901e+01 9.649248e-01
      vertex 1.508709e+01 1.634901e+01 3.837736e+00
      vertex 1.508709e+01 2.054156e+01 3.837736e+00
    endloop
  endfacet
  facet normal -1.000000e+00 0.000000e+00 0.000000e+00
    outer loop
      vertex 1.508709e+01 1.634901e+01 9.649248e-01
      vertex 1.508709e+01 2.054156e+01 3.837736e+00
      vertex 1.508709e+01 2.054156e+01 9.649248e-01
    endloop
  endfacet
  facet normal 0.000000e+00 0.000000e+00 1.000000e+00
    outer loop
      vertex 2.943090e+01 5.867832e+00 -4.045564e-01
      vertex 3.249095e+01 5.867832e+00 -4.045564e-01
      vertex 3.249095e+01 7.925946e+00 -4.045564e-01
    endloop
  endfacet
  facet normal 0.000000e+00 0.000000e+00 1.000000e+00
    outer loop
      vertex 2.943090e+01 5.867832e+00 -4.045564e-01
      vertex 3.249095e+01 7.925946e+00 -4.045564e-01
      vertex 2.943090e+01 7.925946e+00 -4.045564e-01
    endloop
  endfacet
  facet normal 0.000000e+00 0.000000e+00 -1.000000e+00
    outer loop
      vertex 2.943090e+01 5.867832e+00 2.358883e+00
      vertex 2.943090e+01 7.925946e+00 2.358883e+00
      vertex 3.249095e+01 7.925946e+00 2.358883e+00
    endloop
  endfacet
  facet normal 0.000000e+00 0.000000e+00 -1.000000e+00
    outer loop
      vertex 2.943090e+01 5.867832e+00 2.358883e+00
      vertex 3.249095e+01 7.925946e+00 2.358883e+00
      vertex 3.249095e+01 5.867832e+00 2.358883e+00
    endloop
  endfacet
  facet normal 0.000000e+00 1.000000e+00 0.000000e+00
    outer loop
      vertex 2.943090e+01 5.867832e+00 -4.045564e-01
      vertex 2.943090e+01 5.867832e+00 2.358883e+00
      vertex 3.249095e+01 5.867832e+00 2.358883e+00
    endloop
  endfacet
  facet normal 0.000000e+00 1.000000e+00 0.000000e+00
    outer loop
      vertex 2.943090e+01 5.867832e+00 -4.045564e-01
      vertex 3.249095e+01 5.867832e+00 2.358883e+00
      vertex 3.249095e+01 5.867832e+00 -4.045564e-01
    endloop
  endfacet
  facet normal 0.000000e+00 -1.000000e+00 0.000000e+00
    outer loop
      vertex 3.249095e+01 7.925946e+00 -4.045564e-01
      vertex 3.249095e+01 7.925946e+00 2.358883e+00
      vertex 2.943090e+01 7.925946e+00 2.358883e+00
    endloop
  endfacet
  facet normal 0.000000e+00 -1.000000e+00 0.000000e+00
    outer loop
      vertex 3.249095e+01 7.925946e+00 -4.045564e-01
      vertex 2.943090e+01 7.925946e+00 2.358883e+00
      vertex 2.943090e+01 7.925946e+00 -4.045564e-01
    endloop
  endfacet
  facet normal 1.000000e+00 0.000000e+00 0.000000e+00
    outer loop
      vertex 2.943090e+01 5.867832e+00 -4.045564e-01
      vertex 2.943090e+01 7.925946e+00 -4.045564e-01
      vertex 2.943090e+01 7.925946e+00 2.358883e+00
    endloop
  endfacet
  facet normal 1.000000e+00 0.000000e+00 0.000000e+00
    outer loop
      vertex 2.943090e+01 5.867832e+00 -4.045564e-01
      vertex 2.943090e+01 7.925946e+00 2.358883e+00
      vertex 2.943090e+01 5.867832e+00 2.358883e+00
    endloop
  endfacet
  facet normal -1.000000e+00 0.000000e+00 0.000000e+00
    outer loop
      vertex 3.249095e+01 5.867832e+00 -4.045564e-01
      vertex 3.249095e+01 5.867832e+00 2.358883e+00
      vertex 3.249095e+01 7.925946e+00 2.358883e+00
    endloop
  endfacet
  facet normal -1.000000e+00 0.000000e+00 0.000000e+00
    outer loop
      vertex 3.249095e+01 5.867832e+00 -4.045564e-01
      vertex 3.249095e+01 7.925946e+00 2.358883e+00
      vertex 3.249095e+01 7.925946e+00 -4.045564e-01
    endloop
  endfacet
  facet normal 0.000000e+00 0.000000e+00 1.000000e+00
    outer loop
      vertex 3.508730e+01 1.622683e+01 -9.021559e-02
      vertex 3.883728e+01 1.622683e+01 -9.021559e-02
      vertex 3.883728e+01 1.902666e+01 -9.021559e-02
    endloop
  endfacet
  facet normal 0.000000e+00 0.000000e+00 1.000000e+00
    outer loop
      vertex 3.508730e+01 1.622683e+01 -9.021559e-02
      vertex 3.883728e+01 1.902666e+01 -9.021559e-02
      vertex 3.508730e+01 1.902666e+01 -9.021559e-02
    endloop
  endfacet
  facet normal 0.000000e+00 0.000000e+00 -1.000000e+00
    outer loop
      vertex 3.508730e+01 1.622683e+01 2.499762e+00
      vertex 3.508730e+01 1.902666e+01 2.499762e+00
      vertex 3.883728e+01 1.902666e+01 2.499762e+00
    endloop
  endfacet
  facet normal 0.000000e+00 0.000000e+00 -1.000000e+00
    outer loop
      vertex 3.508730e+01 1.622683e+01 2.499762e+00
      vertex 3.883728e+01 1.902666e+01 2.499762e+00
      vertex 3.883728e+01 1.622683e+01 2.499762e+00
    endloop
  endfacet
  facet normal 0.000000e+00 1.000000e+00 0.000000e+00
    outer loop
      vertex 3.508730e+01 1.622683e+01 -9.021559e-02
      vertex 3.508730e+01 1.622683e+01 2.499762e+00
      vertex 3.883728e+01 1.622683e+01 2.499762e+00
    endloop
  endfacet
  facet normal 0.000000e+00 1.000000e+00 0.000000e+00
    outer loop
      vertex 3.508730e+01 1.622683e+01 -9.021559e-02
      vertex 3.883728e+01 1.622683e+01 2.499762e+00
      vertex 3.883728e+01 1.622683e+01 -9.021559e-02
    endloop
  endfacet
  facet normal 0.000000e+00 -1.000000e+00 0.000000e+00
    outer loop
      vertex 3.883728e+01 1.902666e+01 -9.021559e-02
      vertex 3.883728e+01 1.902666e+01 2.499762e+00
      vertex 3.508730e+01 1.902666e+01 2.499762e+00
    endloop
  endfacet
  facet normal 0.000000e+00 -1.000000e+00 0.000000e+00
    outer loop
      vertex 3.883728e+01 1.902666e+01 -9.021559e-02
      vertex 3.508730e+01 1.902666e+01 2.499762e+00
      vertex 3.508730e+01 1.902666e+01 -9.021559e-02
    endloop
  endfacet
  facet normal 1.000000e+00 0.000000e+00 0.000000e+00
    outer loop
      vertex 3.508730e+01 1.622683e+01 -9.021559e-02
      vertex 3.508730e+01 1.902666e+01 -9.021559e-02
      vertex 3.508730e+01 1.902666e+01 2.499762e+00
    endloop
  endfacet
  facet normal 1.000000e+00 0.000000e+00 0.000000e+00
    outer loop
      vertex 3.508730e+01 1.622683e+01 -9.021559e-02
      vertex 3.508730e+01 1.902666e+01 2.499762e+00
      vertex 3.508730e+01 1.622683e+01 2.499762e+00
    endloop
  endfacet
  facet normal -1.000000e+00 0.000000e+00 0.000000e+00
    outer loop
      vertex 3.883728e+01 1.622683e+01 -9.021559e-02
      vertex 3.883728e+01 1.622683e+01 2.499762e+00
      vertex 3.883728e+01 1.902666e+01 2.499762e+00
    endloop
  endfacet
  facet normal -1.000000e+00 0.000000e+00 0.000000e+00
    outer loop
      vertex 3.883728e+01 1.622683e+01 -9.021559e-02
      vertex 3.883728e+01 1.902666e+01 2.499762e+00
      vertex 3.883728e+01 1.902666e+01 -9.021559e-02
    endloop
  endfacet
  facet normal 0.000000e+00 0.000000e+00 1.000000e+00
    outer loop
      vertex 3.421994e+01 1.501647e+01 -5.365757e-01
      vertex 3.661010e+01 1.501647e+01 -5.365757e-01
      vertex 3.661010e+01 1.930687e+01 -5.365757e-01
    endloop
  endfacet
  facet normal 0.000000e+00 0.000000e+00 1.000000e+00
    outer loop
      vertex 3.421994e+01 1.501647e+01 -5.365757e-01
      vertex 3.661010e+01 1.930687e+01 -5.365757e-01
      vertex 3.421994e+01 1.930687e+01 -5.365757e-01
    endloop
  endfacet
  facet normal 0.000000e+00 0.000000e+00 -1.000000e+00
    outer loop
      vertex 3.421994e+01 1.501647e+01 1.643002e+00
      vertex 3.421994e+01 1.930687e+01 1.643002e+00
      vertex 3.661010e+01 1.930687e+01 1.643002e+00
    endloop
  endfacet
  facet normal 0.000000e+00 0.000000e+00 -1.000000e+00
    outer loop
      vertex 3.421994e+01 1.501647e+01 1.643002e+00
      vertex 3.661010e+01 1.930687e+01 1.643002e+00
      vertex 3.661010e+01 1.501647e+01 1.643002e+00
    endloop
  endfacet
  facet normal 0.000000e+00 1.000000e+00 0.000000e+00
    outer loop
      vertex 3.421994e+01 1.501647e+01 -5.365757e-01
      vertex 3.421994e+01 1.501647e+01 1.643002e+00
      vertex 3.661010e+01 1.501647e+01 1.643002e+00
    endloop
  endfacet
  facet normal 0.000000e+00 1.000000e+00 0.000000e+00
    outer loop
      vertex 3.421994e+01 1.501647e+01 -5.365757e-01
      vertex 3.661010e+01 1.501647e+01 1.643002e+00
      vertex 3.661010e+01 1.501647e+01 -5.365757e-01
    endloop
  endfacet
  facet normal 0.000000e+00 -1.000000e+00 0.000000e+00
    outer loop
      vertex 3.661010e+01 1.930687e+01 -5.365757e-01
      vertex 3.661010e+01 1.930687e+01 1.643002e+00
      vertex 3.421994e+01 1.930687e+01 1.643002e+00
    endloop
  endfacet
  facet normal 0.000000e+00 -1.000000e+00 0.000000e+00
    outer loop
      vertex 3.661010e+01 1.930687e+01 -5.365757e-01
      vertex 3.421994e+01 1.930687e+01 1.643002e+00
      vertex 3.421994e+01 1.930687e+01 -5.365757e-01
    endloop
  endfacet
  facet normal 1.000000e+00 0.000000e+00 0.000000e+00
    outer loop
      vertex 3.421994e+01 1.501647e+01 -5.365757e-01
      vertex 3.421994e+01 1.930687e+01 -5.365757e-01
      vertex 3.421994e+01 1.930687e+01 1.643002e+00
    endloop
  endfacet
  facet normal 1.000000e+00 0.000000e+00 0.000000e+00
    outer loop
      vertex 3.421994e+01 1.501647e+01 -5.365757e-01
      vertex 3.421994e+01 1.930687e+01 1.643002e+00
      vertex 3.421994e+01 1.501647e+01 1.643002e+00
    endloop
  endfacet
  facet normal -1.000000e+00 0.000000e+00 0.000000e+00
    outer loop
      vertex 3.661010e+01 1.501647e+01 -5.365757e-01
      vertex 3.661010e+01 1.501647e+01 1.643002e+00
      vertex 3.661010e+01 1.930687e+01 1.643002e+00
    endloop
  endfacet
  facet normal -1.000000e+00 0.000000e+00 0.000000e+00
    outer loop
      vertex 3.661010e+01 1.501647e+01 -5.365757e-01
      vertex 3.661010e+01 1.930687e+01 1.643002e+00
      vertex 3.661010e+01 1.930687e+01 -5.365757e-01
    endloop
  endfacet
endsolid debris
